<?xml version="1.0" encoding="UTF-8"?>
<svg id="Layer_1" xmlns="http://www.w3.org/2000/svg" version="1.1" viewBox="0 0 1308.5 298.9">
  <!-- Generator: Adobe Illustrator 29.6.1, SVG Export Plug-In . SVG Version: 2.1.1 Build 9)  -->
  <defs>
    <style>
      .st0, .st1 {
        display: none;
      }

      .st0, .st2 {
        fill: #fff;
      }

      .st1, .st3 {
        fill: #023a56;
      }
    </style>
  </defs>
  <g>
    <g>
      <path class="st3" d="M0,0l214,37.9-.4,192.3-106.6,68.7L0,229.8V0ZM61.2,76.5v-19.3c-2.1-.2-4.2-1.6-6.4-1.3-1.3.2-12.9,7.1-12.9,7.1l-1.4,21.3-8.8,5.3v-14.1l-5.2-1.1-4.3,4.7s-4.4,38.8-5,57.7c-.3,10.5,7.5,16.8,11,25.6,1.8,4.6-.2,21.4-.6,27.5-1.1,14.2-3,28.4-4,42.6l6.8,3.9,5-71.8c1.5-5.3,20.6-15.6,26.7-15.6l-7.9,102,52.9,35.6,52.5-35.4-8.8-102.2c1.9-1.9,24.9,10.1,26.3,14.6l5.4,71.7,1.3.8,6.5-4.5c-1.2-16.2-3.4-32.4-4.5-48.6-.6-8.6-2.1-16,1.7-23.8,3-6.2,9.6-14.2,9.3-21-.7-19.2-5-58.4-5-58.4l-5.7-5.8-3.8,1.5v14.1l-9.3-6.2-1.7-21s-11.2-6.3-12.2-6.4c-2.1-.4-4.3,1-6.4,1.3v19.3l-23.4-4.1-.6-25.9c-14.4-2.2-29.4-2.7-43.8.3l-.9,25.2-22.7,4.4Z"/>
      <path class="st1" d="M61.2,83.2l22.7-4.4.9-25.2c14.4-3.1,29.3-2.5,43.8-.3l.6,25.9,23.4,4.1v-19.3c2.1-.2,4.2-1.6,6.4-1.3s11.6,5.7,12.2,6.4c3,3.2.2,16.3,1.7,21,.8,2.6,6.7,5.1,9.3,6.2v-14.1l3-1.5,6.5,5.8s4.3,39.2,5,58.4c.3,6.9-6.3,14.8-9.3,21-3.8,7.8-2.3,15.2-1.7,23.8,1.1,16.2,3.3,32.4,4.5,48.6l-6.5,4.5-1.3-.8-5.4-71.7c-1.4-4.5-24.4-16.6-26.3-14.6l8.8,102.2-52.5,35.4-52.9-35.6,7.9-102c-6.1,0-25.2,10.3-26.7,15.6l-5,71.8-6.8-3.9c1.1-14.2,3-28.4,4-42.6.4-6,2.4-22.9.6-27.5-3.5-8.8-11.3-15.1-11-25.6.6-18.9,4.2-38.7,5-57.7,1.7-4.1,5.6-6.9,9.5-3.6v14.1l8.8-5.3c1.6-4.2-.3-18.8,1.4-21.3.7-1,11.6-6.8,12.9-7.1,2.1-.4,4.3,1,6.4,1.3v19.3ZM97.7,110.1c-.8-.7-20.3,2.5-21,3.4l4.6,28.2,17.8-2-1.4-29.6ZM136.9,112.8l-21.3-2.8-1.4,29.6,18.6,2.1,4.1-28.9ZM69.4,145.1l-6.8-27.2c-1.4-1.1-14.7,6.7-17.2,7.3l8.9,25.5,15.1-5.6ZM144.6,145.1l14.4,5.3,8.6-23.1c.3-.7.4-1.4,0-2.1s-16.2-8.2-16.9-7.6l-6.1,27.5ZM34.4,162.4l12.3-7.9-10.6-23.1-12.1,10.7,10.4,20.3ZM177.2,131.4l-10,22.4,11.4,8.6,11.2-20.2-12.6-10.8ZM94.9,179.7h-12.4v23.4h12.4v-23.4ZM113.5,179.7h-12.4v23.4h12.4v-23.4ZM132.1,179.7h-13.1v23.4h13.1v-23.4Z"/>
      <polygon class="st3" points="136.9 106.1 132.8 135 114.2 133 115.6 103.3 136.9 106.1"/>
      <path class="st3" d="M97.7,103.4l1.4,29.6-17.8,2-4.6-28.2c.7-.9,20.3-4.1,21-3.4Z"/>
      <path class="st3" d="M69.4,138.4l-15.1,5.6-8.9-25.5c2.5-.6,15.9-8.4,17.2-7.3l6.8,27.2Z"/>
      <path class="st3" d="M144.6,138.4l6.1-27.5c.7-.6,16.3,6.7,16.9,7.6s.3,1.4,0,2.1l-8.6,23.1-14.4-5.3Z"/>
      <polygon class="st3" points="177.8 125 190.5 135.8 179.2 156 167.9 147.5 177.8 125"/>
      <polygon class="st3" points="33.1 156 22.7 135.7 34.8 125 45.4 148.1 33.1 156"/>
      <rect class="st3" x="119" y="179.7" width="13.1" height="23.4"/>
      <rect class="st3" x="82.6" y="179.7" width="12.4" height="23.4"/>
      <rect class="st3" x="101.1" y="179.7" width="12.4" height="23.4"/>
    </g>
    <g>
      <path class="st3" d="M310.2,121.7c3.6-2.2,7.8-3.4,12.6-3.4s9.9,1.4,13.6,4.1c3.8,2.7,6.5,6.5,8.2,11.3l19.1-6.9c-3.1-8.7-8.2-15.5-15.4-20.5-7.2-5-15.7-7.4-25.6-7.4s-16.4,2-23,5.9c-6.6,4-11.8,9.5-15.5,16.5-3.7,7.1-5.6,15.3-5.6,24.8s1.9,17.8,5.6,24.9c3.7,7.1,8.9,12.6,15.5,16.6,6.6,4,14.3,5.9,23,5.9s18.4-2.5,25.6-7.5c7.2-5,12.3-11.8,15.4-20.4l-19.1-6.8c-1.7,4.8-4.5,8.6-8.2,11.3-3.8,2.7-8.3,4.1-13.6,4.1s-9-1.1-12.6-3.4c-3.6-2.2-6.3-5.4-8.3-9.6-1.9-4.2-2.9-9.2-2.9-15.1s1-10.9,2.9-15c1.9-4.1,4.7-7.3,8.3-9.6Z"/>
      <rect class="st3" x="368.5" y="127.6" width="19.5" height="63.7"/>
      <rect class="st3" x="368.4" y="101.3" width="19.9" height="17.6"/>
      <path class="st3" d="M421.3,103.9l-19.6,10.5v13.3h-10.6v15.1h10.6v28.3c0,5.4,1,9.7,3,12.9,2,3.1,4.7,5.4,7.9,6.8,3.3,1.4,6.7,2.1,10.3,2.1s4-.2,5.9-.5c1.9-.3,3.8-.9,5.7-1.6v-14.9c-1.2.3-2.3.6-3.4.8s-2,.3-2.8.3c-2.8,0-4.7-.9-5.7-2.8-.9-1.9-1.4-4.7-1.4-8.5v-22.8h13.3v-15.1h-13.3v-23.8Z"/>
      <polygon class="st3" points="470.1 165.9 457.6 127.6 436.2 127.6 459.8 185.3 446.3 217.7 467.4 217.7 504 127.6 483 127.6 470.1 165.9"/>
      <path class="st3" d="M563.1,121.7c3.6-2.2,7.8-3.4,12.6-3.4s9.9,1.4,13.6,4.1c3.8,2.7,6.5,6.5,8.2,11.3l19.1-6.9c-3.1-8.7-8.2-15.5-15.4-20.5-7.2-5-15.7-7.4-25.6-7.4s-16.4,2-23,5.9c-6.6,4-11.8,9.5-15.5,16.5-3.7,7.1-5.6,15.3-5.6,24.8s1.9,17.8,5.6,24.9c3.7,7.1,8.9,12.6,15.5,16.6,6.6,4,14.3,5.9,23,5.9s18.4-2.5,25.6-7.5c7.2-5,12.3-11.8,15.4-20.4l-19.1-6.8c-1.7,4.8-4.5,8.6-8.2,11.3-3.8,2.7-8.3,4.1-13.6,4.1s-9-1.1-12.6-3.4c-3.6-2.2-6.3-5.4-8.3-9.6-1.9-4.2-2.9-9.2-2.9-15.1s1-10.9,2.9-15c1.9-4.1,4.7-7.3,8.3-9.6Z"/>
      <path class="st3" d="M669.8,130.5c-4.9-2.8-10.5-4.3-16.8-4.3s-11.9,1.4-16.9,4.3c-5,2.8-8.9,6.8-11.7,11.8-2.8,5-4.3,10.7-4.3,17.2s1.4,12.1,4.3,17.1,6.7,9,11.7,11.9c5,2.9,10.6,4.3,16.9,4.3s11.9-1.4,16.8-4.3c4.9-2.9,8.8-6.9,11.6-11.9,2.8-5,4.3-10.7,4.3-17.1s-1.4-12.2-4.3-17.2c-2.8-5-6.7-8.9-11.6-11.8ZM664.7,168.3c-1,2.5-2.5,4.3-4.5,5.6-2,1.2-4.4,1.9-7.2,1.9s-5.3-.6-7.2-1.9c-2-1.2-3.5-3.1-4.5-5.6-1-2.5-1.6-5.4-1.6-8.9s.5-6.5,1.6-8.9c1-2.4,2.5-4.2,4.5-5.4,2-1.2,4.4-1.9,7.2-1.9s5.3.6,7.2,1.9c2,1.2,3.5,3.1,4.5,5.4,1,2.4,1.5,5.3,1.5,8.9s-.5,6.4-1.5,8.9Z"/>
      <path class="st3" d="M789,174.5c-3.3,1.1-6.5,1.6-9.6,1.6s-6.7-.8-9.4-2.3c-2.7-1.6-4.3-4-4.8-7.5h41.9c.2-1.4.3-2.5.3-3.5,0-.9,0-1.9,0-2.7,0-4.9-.6-9.4-1.9-13.6s-3.2-7.7-5.8-10.7c-2.5-3-5.7-5.4-9.5-7s-8.2-2.5-13.2-2.5-10.5,1-14.5,3c-4,2-7.2,4.6-9.7,7.9-2.5,3.3-4.3,6.9-5.4,10.9-1.2,4-1.7,7.9-1.7,11.9s.6,8.2,1.7,12.1c1.2,3.9,3,7.5,5.6,10.6,2.6,3.1,5.9,5.6,10.1,7.5,4.1,1.9,9.1,2.8,15,2.8s7.1-.3,10-.8c2.9-.6,5.7-1.5,8.5-2.8,2.8-1.3,5.8-3.1,9.2-5.4l-8.3-13.7c-2.4,1.9-5.3,3.4-8.5,4.5ZM766.6,147.7c.9-1.5,2.2-2.7,3.9-3.7,1.8-1,4.1-1.6,6.9-1.6s3,.2,4.4.7c1.4.5,2.6,1.1,3.7,2,1.1.9,1.9,1.9,2.5,3.2.5,1.1.8,2.3.8,3.7h-24c.3-1.4.8-2.8,1.7-4.3Z"/>
      <path class="st3" d="M929.8,135.8c-2.5-3-5.7-5.4-9.5-7s-8.2-2.5-13.2-2.5-10.5,1-14.5,3c-4,2-7.2,4.6-9.7,7.9-2.5,3.3-4.3,6.9-5.4,10.9-1.2,4-1.7,7.9-1.7,11.9s.6,8.2,1.7,12.1c1.2,3.9,3,7.5,5.6,10.6,2.6,3.1,5.9,5.6,10.1,7.5,4.1,1.9,9.1,2.8,15,2.8s7.1-.3,10-.8c2.9-.6,5.7-1.5,8.5-2.8,2.8-1.3,5.8-3.1,9.2-5.4l-8.3-13.7c-2.4,1.9-5.3,3.4-8.5,4.5-3.3,1.1-6.5,1.6-9.6,1.6s-6.7-.8-9.4-2.3c-2.7-1.6-4.3-4-4.8-7.5h41.9c.2-1.4.3-2.5.3-3.5,0-.9,0-1.9,0-2.7,0-4.9-.6-9.4-1.9-13.6s-3.2-7.7-5.8-10.7ZM895,151.9c.3-1.4.8-2.8,1.7-4.3.9-1.5,2.2-2.7,3.9-3.7,1.8-1,4.1-1.6,6.9-1.6s3,.2,4.4.7c1.4.5,2.6,1.1,3.7,2,1.1.9,1.9,1.9,2.5,3.2.5,1.1.8,2.3.8,3.7h-24Z"/>
      <path class="st3" d="M1004.6,101.3h-27.1v90.1h27c15.4,0,27.2-3.8,35.4-11.4,8.1-7.6,12.2-18.6,12.2-32.9s-4.1-25.9-12.4-33.9c-8.3-7.9-20-11.9-35-11.9ZM1028.2,162.9c-2.3,3.8-5.7,6.4-10,7.8-4.4,1.4-9.6,2.1-15.7,2.1h-4.7v-52.9h6.5c5.7,0,10.6.7,14.7,2.2,4.1,1.5,7.2,4.1,9.4,7.9,2.2,3.8,3.3,9.2,3.3,16.2s-1.2,12.8-3.5,16.6Z"/>
      <path class="st3" d="M1098.9,148.7c0,5-.2,9.6-.5,13.7s-1.3,7.4-2.9,9.8c-1.6,2.4-4.4,3.6-8.3,3.6s-5.4-.6-6.9-1.9c-1.5-1.3-2.4-2.9-2.8-4.8-.4-1.9-.6-3.9-.6-6v-35.4h-19.5v39.4c0,5,.8,9.4,2.5,13.3,1.6,3.9,4.2,6.9,7.8,9.1,3.5,2.2,8.1,3.3,13.7,3.3s7.8-1,11.3-2.8c2.5-1.4,4.6-3.6,6.4-6.5v7.9h19.5v-63.7h-19.5v21.1Z"/>
      <path class="st3" d="M1174.9,130.1c-3.9-2.6-8.3-3.9-13.1-3.9s-5.8.6-8.7,1.9c-2.9,1.3-5.4,3.4-7.4,6.3-.2.3-.4.7-.6,1.1v-34.3h-19.4v90.1h19.4v-7.9c.4.6.7,1.2,1.1,1.7,2.3,3,4.8,5,7.6,6.1,2.8,1,5.5,1.6,8.1,1.6,5.5,0,10.2-1.4,14.1-4.3,3.9-2.9,6.8-6.9,8.9-11.9,2-5,3-10.7,3-17.1s-1.2-13.2-3.5-18.1c-2.3-4.9-5.5-8.7-9.4-11.2ZM1166.7,167.8c-1,2.3-2.4,4.1-4.3,5.3-1.9,1.2-4.1,1.8-6.8,1.8s-4.8-.6-6.7-1.9c-1.9-1.2-3.3-3-4.3-5.4-1-2.3-1.5-5.1-1.5-8.3s.5-5.9,1.5-8.2c1-2.3,2.4-4,4.3-5.3,1.9-1.2,4.1-1.9,6.7-1.9s4.9.6,6.8,1.8c1.9,1.2,3.3,3,4.3,5.2,1,2.3,1.5,5.1,1.5,8.3s-.5,6.1-1.5,8.4Z"/>
      <rect class="st3" x="1220.3" y="101.3" width="19.9" height="17.6"/>
      <rect class="st3" x="1220.4" y="127.6" width="19.5" height="63.7"/>
      <path class="st3" d="M1302.3,132.4c-4.1-4.1-9.9-6.1-17.3-6.1s-5.4.5-8.2,1.4c-2.8,1-5.3,2.6-7.6,5-.9.9-1.6,2-2.3,3.3v-8.2h-19.5v63.7h19.5v-29.7c0-4.3.4-7.8,1.3-10.5.9-2.7,2.2-4.7,3.9-6s4-1.9,6.8-1.9,6.1,1,7.7,3.1c1.6,2.1,2.4,5.4,2.4,10v35.2h19.5v-42.4c0-7-2.1-12.5-6.2-16.6Z"/>
      <path class="st3" d="M855.6,179.7h-23.5c-3.8,0-4.9-1-4.9-3s1.8-2.8,3.8-3.5c3.6,1.3,7.6,2,12,2s10.2-1,14.3-2.9c4.1-2,7.3-4.7,9.6-8.3,2.3-3.6,3.4-7.8,3.4-12.6s-.9-9.4-3.9-12.7c2-.3,6.1.4,9,1.3l.9-17.6c-10.5,0-16.6,2.5-19.8,6.7-.1,0-.2-.1-.4-.2-4.2-2-8.8-3.1-13.7-3.1s-9.5,1-13.7,3.1c-4.2,2.1-7.6,4.9-10.1,8.6-2.5,3.7-3.8,8.1-3.8,13.2s1.2,8.9,3.5,12.6c1.3,2.1,3,3.9,5,5.5-7.1,2.5-13.3,7.3-13.3,14s4.3,9.1,9,11.7c-7.3,1.4-12.5,5.6-12.5,10.7,0,9.3,11.4,14.8,33.4,14.8s36.7-7.4,36.7-21.9-6.6-18.4-20.9-18.4ZM836.7,144.6c1.4-1.6,3.4-2.4,6-2.4s4.5.8,5.9,2.4c1.4,1.6,2.1,3.6,2.1,6.2s-.6,4.6-1.8,6.4c-1.2,1.8-3.3,2.7-6.2,2.7s-5.1-.9-6.3-2.7c-1.2-1.8-1.8-3.9-1.8-6.4s.7-4.6,2.1-6.2ZM841.5,207c-10.9,0-15.6-1.5-15.6-4.9s2.5-4.9,10-4.9h16.5c5.1,0,6.5,1.4,6.5,3.6,0,4.2-4.4,6.2-17.4,6.2Z"/>
      <rect class="st3" x="691.5" y="101" width="19.4" height="90.4"/>
      <rect class="st3" x="719.5" y="101" width="19.4" height="90.4"/>
      <rect class="st3" x="1193.6" y="101" width="19.4" height="90.4"/>
    </g>
  </g>
  <g>
    <g>
      <path class="st2" d="M0,385.1l214,37.9-.4,192.3-106.6,68.7L0,614.9v-229.8ZM61.2,461.6v-19.3c-2.1-.2-4.2-1.6-6.4-1.3-1.3.2-12.9,7.1-12.9,7.1l-1.4,21.3-8.8,5.3v-14.1l-5.2-1.1-4.3,4.7s-4.4,38.8-5,57.7c-.3,10.5,7.5,16.8,11,25.6,1.8,4.6-.2,21.4-.6,27.5-1.1,14.2-3,28.4-4,42.6l6.8,3.9,5-71.8c1.5-5.3,20.6-15.6,26.7-15.6l-7.9,102,52.9,35.6,52.5-35.4-8.8-102.2c1.9-1.9,24.9,10.1,26.3,14.6l5.4,71.7,1.3.8,6.5-4.5c-1.2-16.2-3.4-32.4-4.5-48.6-.6-8.6-2.1-16,1.7-23.8,3-6.2,9.6-14.2,9.3-21-.7-19.2-5-58.4-5-58.4l-5.7-5.8-3.8,1.5v14.1l-9.3-6.2-1.7-21s-11.2-6.3-12.2-6.4c-2.1-.4-4.3,1-6.4,1.3v19.3l-23.4-4.1-.6-25.9c-14.4-2.2-29.4-2.7-43.8.3l-.9,25.2-22.7,4.4Z"/>
      <path class="st0" d="M61.2,468.3l22.7-4.4.9-25.2c14.4-3.1,29.3-2.5,43.8-.3l.6,25.9,23.4,4.1v-19.3c2.1-.2,4.2-1.6,6.4-1.3s11.6,5.7,12.2,6.4c3,3.2.2,16.3,1.7,21s6.7,5.1,9.3,6.2v-14.1l3-1.5,6.5,5.8s4.3,39.2,5,58.4c.3,6.9-6.3,14.8-9.3,21-3.8,7.8-2.3,15.2-1.7,23.8,1.1,16.2,3.3,32.4,4.5,48.6l-6.5,4.5-1.3-.8-5.4-71.7c-1.4-4.5-24.4-16.6-26.3-14.6l8.8,102.2-52.5,35.4-52.9-35.6,7.9-102c-6.1,0-25.2,10.3-26.7,15.6l-5,71.8-6.8-3.9c1.1-14.2,3-28.4,4-42.6.4-6,2.4-22.9.6-27.5-3.5-8.8-11.3-15.1-11-25.6.6-18.9,4.2-38.7,5-57.7,1.7-4.1,5.6-6.9,9.5-3.6v14.1l8.8-5.3c1.6-4.2-.3-18.8,1.4-21.3.7-1,11.6-6.8,12.9-7.1,2.1-.4,4.3,1,6.4,1.3v19.3ZM97.7,495.2c-.8-.7-20.3,2.5-21,3.4l4.6,28.2,17.8-2-1.4-29.6ZM136.9,497.9l-21.3-2.8-1.4,29.6,18.6,2.1,4.1-28.9ZM69.4,530.3l-6.8-27.2c-1.4-1.1-14.7,6.7-17.2,7.3l8.9,25.5,15.1-5.6ZM144.6,530.2l14.4,5.3,8.6-23.1c.3-.7.4-1.4,0-2.1s-16.2-8.2-16.9-7.6l-6.1,27.5ZM34.4,547.5l12.3-7.9-10.6-23.1-12.1,10.7,10.4,20.3ZM177.2,516.5l-10,22.4,11.4,8.6,11.2-20.2-12.6-10.8ZM94.9,564.8h-12.4v23.4h12.4v-23.4ZM113.5,564.8h-12.4v23.4h12.4v-23.4ZM132.1,564.8h-13.1v23.4h13.1v-23.4Z"/>
      <polygon class="st2" points="136.9 491.2 132.8 520.1 114.2 518.1 115.6 488.4 136.9 491.2"/>
      <path class="st2" d="M97.7,488.5l1.4,29.6-17.8,2-4.6-28.2c.7-.9,20.3-4.1,21-3.4Z"/>
      <path class="st2" d="M69.4,523.5l-15.1,5.6-8.9-25.5c2.5-.6,15.9-8.4,17.2-7.3l6.8,27.2Z"/>
      <path class="st2" d="M144.6,523.5l6.1-27.5c.7-.6,16.3,6.7,16.9,7.6s.3,1.4,0,2.1l-8.6,23.1-14.4-5.3Z"/>
      <polygon class="st2" points="177.8 510.1 190.5 520.9 179.2 541.1 167.9 532.6 177.8 510.1"/>
      <polygon class="st2" points="33.1 541.1 22.7 520.8 34.8 510.1 45.4 533.2 33.1 541.1"/>
      <rect class="st2" x="119" y="564.8" width="13.1" height="23.4"/>
      <rect class="st2" x="82.6" y="564.8" width="12.4" height="23.4"/>
      <rect class="st2" x="101.1" y="564.8" width="12.4" height="23.4"/>
    </g>
    <g>
      <path class="st2" d="M310.2,506.8c3.6-2.2,7.8-3.4,12.6-3.4s9.9,1.4,13.6,4.1c3.8,2.7,6.5,6.5,8.2,11.3l19.1-6.9c-3.1-8.7-8.2-15.5-15.4-20.5-7.2-5-15.7-7.4-25.6-7.4s-16.4,2-23,5.9c-6.6,4-11.8,9.5-15.5,16.5-3.7,7.1-5.6,15.3-5.6,24.8s1.9,17.8,5.6,24.9c3.7,7.1,8.9,12.6,15.5,16.6,6.6,4,14.3,5.9,23,5.9s18.4-2.5,25.6-7.5c7.2-5,12.3-11.8,15.4-20.4l-19.1-6.8c-1.7,4.8-4.5,8.6-8.2,11.3-3.8,2.7-8.3,4.1-13.6,4.1s-9-1.1-12.6-3.4c-3.6-2.2-6.3-5.4-8.3-9.6-1.9-4.2-2.9-9.2-2.9-15.1s1-10.9,2.9-15c1.9-4.1,4.7-7.3,8.3-9.6Z"/>
      <rect class="st2" x="368.5" y="512.7" width="19.5" height="63.7"/>
      <rect class="st2" x="368.4" y="486.4" width="19.9" height="17.6"/>
      <path class="st2" d="M421.3,489l-19.6,10.5v13.3h-10.6v15.1h10.6v28.3c0,5.4,1,9.7,3,12.9,2,3.1,4.7,5.4,7.9,6.8,3.3,1.4,6.7,2.1,10.3,2.1s4-.2,5.9-.5c1.9-.3,3.8-.9,5.7-1.6v-14.9c-1.2.3-2.3.6-3.4.8s-2,.3-2.8.3c-2.8,0-4.7-.9-5.7-2.8-.9-1.9-1.4-4.7-1.4-8.5v-22.8h13.3v-15.1h-13.3v-23.8Z"/>
      <polygon class="st2" points="470.1 551 457.6 512.7 436.2 512.7 459.8 570.4 446.3 602.8 467.4 602.8 504 512.7 483 512.7 470.1 551"/>
      <path class="st2" d="M563.1,506.8c3.6-2.2,7.8-3.4,12.6-3.4s9.9,1.4,13.6,4.1c3.8,2.7,6.5,6.5,8.2,11.3l19.1-6.9c-3.1-8.7-8.2-15.5-15.4-20.5-7.2-5-15.7-7.4-25.6-7.4s-16.4,2-23,5.9c-6.6,4-11.8,9.5-15.5,16.5-3.7,7.1-5.6,15.3-5.6,24.8s1.9,17.8,5.6,24.9c3.7,7.1,8.9,12.6,15.5,16.6,6.6,4,14.3,5.9,23,5.9s18.4-2.5,25.6-7.5c7.2-5,12.3-11.8,15.4-20.4l-19.1-6.8c-1.7,4.8-4.5,8.6-8.2,11.3-3.8,2.7-8.3,4.1-13.6,4.1s-9-1.1-12.6-3.4c-3.6-2.2-6.3-5.4-8.3-9.6-1.9-4.2-2.9-9.2-2.9-15.1s1-10.9,2.9-15c1.9-4.1,4.7-7.3,8.3-9.6Z"/>
      <path class="st2" d="M669.8,515.6c-4.9-2.8-10.5-4.3-16.8-4.3s-11.9,1.4-16.9,4.3c-5,2.8-8.9,6.8-11.7,11.8-2.8,5-4.3,10.7-4.3,17.2s1.4,12.1,4.3,17.1c2.8,5,6.7,9,11.7,11.9,5,2.9,10.6,4.3,16.9,4.3s11.9-1.4,16.8-4.3c4.9-2.9,8.8-6.9,11.6-11.9,2.8-5,4.3-10.7,4.3-17.1s-1.4-12.2-4.3-17.2c-2.8-5-6.7-8.9-11.6-11.8ZM664.7,553.4c-1,2.5-2.5,4.3-4.5,5.6-2,1.2-4.4,1.9-7.2,1.9s-5.3-.6-7.2-1.9c-2-1.2-3.5-3.1-4.5-5.6-1-2.5-1.6-5.4-1.6-8.9s.5-6.5,1.6-8.9c1-2.4,2.5-4.2,4.5-5.4,2-1.2,4.4-1.9,7.2-1.9s5.3.6,7.2,1.9c2,1.2,3.5,3.1,4.5,5.4,1,2.4,1.5,5.3,1.5,8.9s-.5,6.4-1.5,8.9Z"/>
      <path class="st2" d="M789,559.6c-3.3,1.1-6.5,1.6-9.6,1.6s-6.7-.8-9.4-2.3c-2.7-1.6-4.3-4-4.8-7.5h41.9c.2-1.4.3-2.5.3-3.5,0-.9,0-1.9,0-2.7,0-4.9-.6-9.4-1.9-13.6s-3.2-7.7-5.8-10.7c-2.5-3-5.7-5.4-9.5-7-3.8-1.7-8.2-2.5-13.2-2.5s-10.5,1-14.5,3c-4,2-7.2,4.6-9.7,7.9-2.5,3.3-4.3,6.9-5.4,10.9-1.2,4-1.7,7.9-1.7,11.9s.6,8.2,1.7,12.1c1.2,3.9,3,7.5,5.6,10.6,2.6,3.1,5.9,5.6,10.1,7.5,4.1,1.9,9.1,2.8,15,2.8s7.1-.3,10-.8c2.9-.6,5.7-1.5,8.5-2.8,2.8-1.3,5.8-3.1,9.2-5.4l-8.3-13.7c-2.4,1.9-5.3,3.4-8.5,4.5ZM766.6,532.8c.9-1.5,2.2-2.7,3.9-3.7,1.8-1,4.1-1.6,6.9-1.6s3,.2,4.4.7c1.4.5,2.6,1.1,3.7,2,1.1.9,1.9,1.9,2.5,3.2.5,1.1.8,2.3.8,3.7h-24c.3-1.4.8-2.8,1.7-4.3Z"/>
      <path class="st2" d="M929.8,520.9c-2.5-3-5.7-5.4-9.5-7-3.8-1.7-8.2-2.5-13.2-2.5s-10.5,1-14.5,3c-4,2-7.2,4.6-9.7,7.9-2.5,3.3-4.3,6.9-5.4,10.9-1.2,4-1.7,7.9-1.7,11.9s.6,8.2,1.7,12.1c1.2,3.9,3,7.5,5.6,10.6,2.6,3.1,5.9,5.6,10.1,7.5,4.1,1.9,9.1,2.8,15,2.8s7.1-.3,10-.8c2.9-.6,5.7-1.5,8.5-2.8,2.8-1.3,5.8-3.1,9.2-5.4l-8.3-13.7c-2.4,1.9-5.3,3.4-8.5,4.5-3.3,1.1-6.5,1.6-9.6,1.6s-6.7-.8-9.4-2.3c-2.7-1.6-4.3-4-4.8-7.5h41.9c.2-1.4.3-2.5.3-3.5,0-.9,0-1.9,0-2.7,0-4.9-.6-9.4-1.9-13.6s-3.2-7.7-5.8-10.7ZM895,537.1c.3-1.4.8-2.8,1.7-4.3.9-1.5,2.2-2.7,3.9-3.7,1.8-1,4.1-1.6,6.9-1.6s3,.2,4.4.7c1.4.5,2.6,1.1,3.7,2,1.1.9,1.9,1.9,2.5,3.2.5,1.1.8,2.3.8,3.7h-24Z"/>
      <path class="st2" d="M1004.6,486.4h-27.1v90.1h27c15.4,0,27.2-3.8,35.4-11.4,8.1-7.6,12.2-18.6,12.2-32.9s-4.1-25.9-12.4-33.9c-8.3-7.9-20-11.9-35-11.9ZM1028.2,548c-2.3,3.8-5.7,6.4-10,7.8-4.4,1.4-9.6,2.1-15.7,2.1h-4.7v-52.9h6.5c5.7,0,10.6.7,14.7,2.2,4.1,1.5,7.2,4.1,9.4,7.9,2.2,3.8,3.3,9.2,3.3,16.2s-1.2,12.8-3.5,16.6Z"/>
      <path class="st2" d="M1098.9,533.8c0,5-.2,9.6-.5,13.7s-1.3,7.4-2.9,9.8c-1.6,2.4-4.4,3.6-8.3,3.6s-5.4-.6-6.9-1.9c-1.5-1.3-2.4-2.9-2.8-4.8-.4-1.9-.6-3.9-.6-6v-35.4h-19.5v39.4c0,5,.8,9.4,2.5,13.3,1.6,3.9,4.2,6.9,7.8,9.1,3.5,2.2,8.1,3.3,13.7,3.3s7.8-1,11.3-2.8c2.5-1.4,4.6-3.6,6.4-6.5v7.9h19.5v-63.7h-19.5v21.1Z"/>
      <path class="st2" d="M1174.9,515.2c-3.9-2.6-8.3-3.9-13.1-3.9s-5.8.6-8.7,1.9c-2.9,1.3-5.4,3.4-7.4,6.3-.2.3-.4.7-.6,1.1v-34.3h-19.4v90.1h19.4v-7.9c.4.6.7,1.2,1.1,1.7,2.3,3,4.8,5,7.6,6.1,2.8,1,5.5,1.6,8.1,1.6,5.5,0,10.2-1.4,14.1-4.3,3.9-2.9,6.8-6.9,8.9-11.9,2-5,3-10.7,3-17.1s-1.2-13.2-3.5-18.1c-2.3-4.9-5.5-8.7-9.4-11.2ZM1166.7,553c-1,2.3-2.4,4.1-4.3,5.3-1.9,1.2-4.1,1.8-6.8,1.8s-4.8-.6-6.7-1.9c-1.9-1.2-3.3-3-4.3-5.4-1-2.3-1.5-5.1-1.5-8.3s.5-5.9,1.5-8.2c1-2.3,2.4-4,4.3-5.3,1.9-1.2,4.1-1.9,6.7-1.9s4.9.6,6.8,1.8c1.9,1.2,3.3,3,4.3,5.2,1,2.3,1.5,5.1,1.5,8.3s-.5,6.1-1.5,8.4Z"/>
      <rect class="st2" x="1220.3" y="486.4" width="19.9" height="17.6"/>
      <rect class="st2" x="1220.4" y="512.7" width="19.5" height="63.7"/>
      <path class="st2" d="M1302.3,517.5c-4.1-4.1-9.9-6.1-17.3-6.1s-5.4.5-8.2,1.4c-2.8,1-5.3,2.6-7.6,5-.9.9-1.6,2-2.3,3.3v-8.2h-19.5v63.7h19.5v-29.7c0-4.3.4-7.8,1.3-10.5.9-2.7,2.2-4.7,3.9-6s4-1.9,6.8-1.9,6.1,1,7.7,3.1c1.6,2.1,2.4,5.4,2.4,10v35.2h19.5v-42.4c0-7-2.1-12.5-6.2-16.6Z"/>
      <path class="st2" d="M855.6,564.8h-23.5c-3.8,0-4.9-1-4.9-3s1.8-2.8,3.8-3.5c3.6,1.3,7.6,2,12,2s10.2-1,14.3-2.9c4.1-2,7.3-4.7,9.6-8.3,2.3-3.6,3.4-7.8,3.4-12.6s-.9-9.4-3.9-12.7c2-.3,6.1.4,9,1.3l.9-17.6c-10.5,0-16.6,2.5-19.8,6.7-.1,0-.2-.1-.4-.2-4.2-2-8.8-3.1-13.7-3.1s-9.5,1-13.7,3.1c-4.2,2.1-7.6,4.9-10.1,8.6-2.5,3.7-3.8,8.1-3.8,13.2s1.2,8.9,3.5,12.6c1.3,2.1,3,3.9,5,5.5-7.1,2.5-13.3,7.3-13.3,14s4.3,9.1,9,11.7c-7.3,1.4-12.5,5.6-12.5,10.7,0,9.3,11.4,14.8,33.4,14.8s36.7-7.4,36.7-21.9-6.6-18.4-20.9-18.4ZM836.7,529.7c1.4-1.6,3.4-2.4,6-2.4s4.5.8,5.9,2.4c1.4,1.6,2.1,3.6,2.1,6.2s-.6,4.6-1.8,6.4c-1.2,1.8-3.3,2.7-6.2,2.7s-5.1-.9-6.3-2.7c-1.2-1.8-1.8-3.9-1.8-6.4s.7-4.6,2.1-6.2ZM841.5,592.1c-10.9,0-15.6-1.5-15.6-4.9s2.5-4.9,10-4.9h16.5c5.1,0,6.5,1.4,6.5,3.6,0,4.2-4.4,6.2-17.4,6.2Z"/>
      <rect class="st2" x="691.5" y="486.1" width="19.4" height="90.4"/>
      <rect class="st2" x="719.5" y="486.1" width="19.4" height="90.4"/>
      <rect class="st2" x="1193.6" y="486.1" width="19.4" height="90.4"/>
    </g>
  </g>
</svg>