<svg xmlns="http://www.w3.org/2000/svg" width="153.142" height="133.326" viewBox="0 0 153.142 133.326">
  <g id="Group_8571" data-name="Group 8571" transform="translate(0 -0.001)">
    <g id="Group_8575" data-name="Group 8575" transform="translate(0 0.001)">
      <path id="Path_41633" data-name="Path 41633" d="M142.321,43.662V36.433H129.583V0L126.563,1.8A139.582,139.582,0,0,0,88.636,35.189l-.255.32c-.183.23-.366.459-.549.693l-.179.231H0V82.315H5.9V92.6H41.366c11.345,16.718,13.11,36.679,13.131,36.938l.305,3.786,1.591-3.45c4.8-10.394,12.839-22.9,23.96-37.275h72.788V43.662Zm-1.992-5.237v5.237H97.248v-3.99h32.335V38.425Zm-95.765,41.9a41.219,41.219,0,0,0-15.3-2.8l-2.771.166,2.244,1.633c.446.325.87.666,1.3,1H7.9V65.829a8.651,8.651,0,0,0,1.548,1.744c8.78,7.226,24.188,3.985,30.695-1.49.892-.758,2.68-1.678,2.085-2.98-2,.41-3.675,1.739-5.663,2.683a18.7,18.7,0,0,1-7.15,2.085c-8.455.47-19.717-5-15.2-13.708C15.9,50.921,25.4,46.242,30.3,49.1c2.434,1.414,1.666,4.892,5.068,5.663s6-.573,6.258-2.385c.458-3.217-7.338-5.017-11.921-5.363C20.379,46.3,11.73,48.965,7.9,53.831V45.653H52.041V80.008H97.248V45.653h43.081v34.67Zm18.6,1.992c-1.209,3.444-2.064,6.267-2.629,8.3H59.048a34.232,34.232,0,0,0-10.164-8.3ZM5.9,58.543a9.525,9.525,0,0,0,0,1.967V80.323H1.992v-41.9h84.12l-.394.51H52.041v4.727H5.9ZM7.9,90.611v-8.3H32.432a54.155,54.155,0,0,1,7.523,8.3Zm71.489,0c-.258.332-.519.666-.774,1s-.513.665-.767,1c-9.69,12.629-17,23.823-21.8,33.407-.99-6.358-4.009-20.626-12.3-33.407-.216-.333-.428-.666-.651-1s-.461-.664-.693-1a57.715,57.715,0,0,0-7.036-8.3c-.348-.337-.707-.667-1.066-1s-.743-.668-1.123-1c-.286-.248-.567-.5-.86-.741a40.723,40.723,0,0,1,5.254.741,39.9,39.9,0,0,1,3.866,1c.9.282,1.822.622,2.755,1a33.2,33.2,0,0,1,12.206,8.3c.291.315.568.662.852,1s.567.648.839,1c.579.739,1.141,1.515,1.679,2.34l1.3,2,.5-2.341c0-.018.16-.73.493-2q.118-.451.266-1c.086-.312.176-.639.277-1,.555-1.956,1.352-4.559,2.435-7.643H85.468q-3.183,3.906-6.084,7.643m71.766,0H81.909q3.071-3.918,6.427-8.007l.239-.29h53.745V45.653h8.829Z" transform="translate(0 -0.001)" fill="#fff"/>
      <path id="Path_41634" data-name="Path 41634" d="M210.713,41.179c-.264.332-.531.664-.79,1-.063.081-.13.162-.193.243H248.1V8.261a137.452,137.452,0,0,0-37.383,32.918" transform="translate(-120.512 -4.747)" fill="#f9c543"/>
      <path id="Path_41635" data-name="Path 41635" d="M106.266,198.107c-.1.356-.191.683-.277,1q-.149.544-.267,1c-.333,1.273-.488,1.985-.493,2l-.5,2.341-1.3-2c-.537-.825-1.1-1.6-1.678-2.34-.273-.348-.559-.666-.84-1s-.561-.68-.852-1a33.207,33.207,0,0,0-12.206-8.3c-.933-.374-1.858-.714-2.755-1-1.357-.425-2.65-.744-3.866-1a40.72,40.72,0,0,0-5.254-.741c.293.242.574.493.86.741q.57.492,1.123,1c.359.329.718.659,1.066,1a57.687,57.687,0,0,1,7.036,8.3c.233.331.468.661.694,1s.435.664.651,1c8.289,12.781,11.308,27.049,12.3,33.407,4.8-9.584,12.106-20.778,21.8-33.407q.381-.5.767-1c.255-.33.516-.664.774-1q2.912-3.744,6.084-7.643H108.7c-1.083,3.085-1.879,5.687-2.435,7.643" transform="translate(-43.656 -107.496)" fill="#f9c543"/>
      <path id="Path_41636" data-name="Path 41636" d="M254.948,135.14c6.853-.473,17.083-2.583,16.388-9.536-.6-5.984-11.05-4.755-14.886-7.45.273,0,3.7-1.715,4.122-1.864,1.465-.47,3.265-1.153,4.807-.892a4.2,4.2,0,0,0,.049,1.812c.732,1.8,8.531-1.614,8.889-2.928.422-1.566,1.168-3.2.373-4.334a2.58,2.58,0,0,0-1.1-.835c-1.539-.668-3.478-.134-5.092-.209-6.977-.322-20.076,1.329-18.015,11.335.944,4.619,11.994,2.422,15.2,5.663-2.868,2.3-7.784,2.543-12.813,2.683-.562-.437-.349-1.642-1.49-1.49-2.771.78-7.09,2.109-5.961,5.958.707,2.422,6.009,2.324,9.536,2.088" transform="translate(-140.91 -62.502)" fill="#fff"/>
      <path id="Path_41637" data-name="Path 41637" d="M43.1,193.5H18.56v8.3H50.62a54.156,54.156,0,0,0-7.523-8.3" transform="translate(-10.665 -111.187)" fill="#1a1818"/>
      <path id="Path_41638" data-name="Path 41638" d="M125.08,201.8h1.492c.565-2.03,1.419-4.853,2.629-8.3H114.916a34.228,34.228,0,0,1,10.164,8.3" transform="translate(-66.032 -111.187)" fill="#1a1818"/>
      <path id="Path_41639" data-name="Path 41639" d="M252.961,107.318v36.661H199.216l-.239.291q-3.368,4.1-6.427,8.006h69.24V107.318Z" transform="translate(-110.641 -61.666)" fill="#1a1818"/>
      <path id="Path_41640" data-name="Path 41640" d="M47.254,132.224H143.02v-41.9H4.682v41.9H32.727c-.43-.337-.855-.679-1.3-1l-2.244-1.633,2.771-.166a41.22,41.22,0,0,1,15.3,2.8m65.9-15.729c1.141-.152.929,1.053,1.49,1.49,5.029-.14,9.945-.385,12.813-2.683-3.2-3.241-14.255-1.044-15.2-5.663C110.2,99.634,123.3,97.983,130.273,98.3c1.615.076,3.554-.458,5.092.209a2.583,2.583,0,0,1,1.1.835c.8,1.129.049,2.768-.373,4.334-.358,1.314-8.158,4.728-8.889,2.928a4.2,4.2,0,0,1-.049-1.812c-1.542-.261-3.341.422-4.807.892-.422.148-3.848,1.863-4.121,1.863,3.836,2.695,14.291,1.466,14.886,7.451.7,6.953-9.536,9.062-16.388,9.536-3.527.237-8.828.334-9.536-2.088-1.129-3.848,3.19-5.177,5.961-5.957M54.731,97.555V90.836H99.938v41.073H54.731Zm-42.6,21.92a8.651,8.651,0,0,1-1.548-1.744,11.693,11.693,0,0,1-.995-1.756,11.441,11.441,0,0,1-1-3.564,9.525,9.525,0,0,1,0-1.967,8.406,8.406,0,0,1,.559-2.293,9.378,9.378,0,0,1,.438-.9,10.3,10.3,0,0,1,.995-1.523C14.421,100.866,23.07,98.2,32.4,98.914c4.583.346,12.379,2.146,11.921,5.363-.261,1.812-2.868,3.141-6.258,2.385s-2.634-4.248-5.068-5.663c-4.9-2.856-14.4,1.824-16.091,5.065-4.519,8.7,6.743,14.179,15.2,13.708a18.7,18.7,0,0,0,7.15-2.085c1.988-.944,3.663-2.273,5.663-2.683.595,1.3-1.193,2.222-2.085,2.98-6.507,5.475-21.915,8.716-30.695,1.49" transform="translate(-2.69 -51.902)" fill="#1a1818"/>
      <path id="Path_41641" data-name="Path 41641" d="M134.837,128.982c1.305,10.23,17.235,12.5,25.927,8.343,2.1-1.011,4.485-3.3,4.455-4.9L157.5,131.24c-1.326.838-1.939,2.665-4.191,3.1-4.148.807-9.077-1.08-8.346-5.957h20.862c.968-18.4-33.238-17.014-30.992.595m21.453-4.768H144.967c-.209-5.712,11.712-6.334,11.323,0" transform="translate(-77.417 -66.178)" fill="#1a1818"/>
    </g>
  </g>
</svg>
