<?xml version="1.0" encoding="utf-8"?>
<!-- Generator: Adobe Illustrator 23.0.4, SVG Export Plug-In . SVG Version: 6.00 Build 0)  -->
<svg version="1.1" id="Layer_1" xmlns="http://www.w3.org/2000/svg" xmlns:xlink="http://www.w3.org/1999/xlink" x="0px" y="0px"
	 viewBox="0 0 248.9 38.2" style="enable-background:new 0 0 248.9 38.2;" xml:space="preserve">
<style type="text/css">
	.st0{fill:#FFFFFF;}
</style>
<g>
	<g>
		<path class="st0" d="M49.9,11.9c0.9,0,1.8,0.1,2.6,0.4c0.8,0.3,1.5,0.7,2.1,1.3c0.6,0.6,1,1.3,1.4,2.2c0.3,0.9,0.5,1.9,0.5,3.1
			c0,1-0.1,2-0.4,2.9c-0.3,0.9-0.7,1.7-1.2,2.3c-0.5,0.6-1.2,1.2-2,1.5c-0.8,0.4-1.8,0.6-2.9,0.6h-6.2V11.9H49.9z M49.6,23.6
			c0.5,0,0.9-0.1,1.3-0.2c0.4-0.1,0.8-0.4,1.1-0.7c0.3-0.3,0.6-0.8,0.8-1.3c0.2-0.6,0.3-1.2,0.3-2c0-0.7-0.1-1.4-0.2-2
			c-0.1-0.6-0.4-1.1-0.7-1.5c-0.3-0.4-0.7-0.7-1.3-1c-0.5-0.2-1.2-0.3-2-0.3h-2.3v9.1H49.6z"/>
		<path class="st0" d="M58.1,18.8c0.3-0.7,0.6-1.3,1.1-1.7s1-0.8,1.7-1.1c0.7-0.3,1.4-0.4,2.2-0.4c0.8,0,1.6,0.1,2.2,0.4
			c0.7,0.3,1.2,0.6,1.7,1.1c0.5,0.5,0.8,1.1,1.1,1.7c0.3,0.7,0.4,1.4,0.4,2.3c0,0.8-0.1,1.6-0.4,2.3c-0.3,0.7-0.6,1.2-1.1,1.7
			c-0.5,0.5-1,0.8-1.7,1.1c-0.7,0.3-1.4,0.4-2.2,0.4c-0.8,0-1.6-0.1-2.2-0.4c-0.7-0.3-1.2-0.6-1.7-1.1c-0.5-0.5-0.8-1.1-1.1-1.7
			c-0.3-0.7-0.4-1.4-0.4-2.3C57.8,20.2,57.9,19.5,58.1,18.8z M60.7,22.3c0.1,0.4,0.2,0.8,0.4,1.1c0.2,0.3,0.5,0.6,0.8,0.8
			c0.3,0.2,0.7,0.3,1.2,0.3c0.5,0,0.9-0.1,1.2-0.3c0.3-0.2,0.6-0.4,0.8-0.8c0.2-0.3,0.3-0.7,0.4-1.1c0.1-0.4,0.1-0.8,0.1-1.2
			s0-0.8-0.1-1.2c-0.1-0.4-0.2-0.8-0.4-1.1c-0.2-0.3-0.5-0.6-0.8-0.8c-0.3-0.2-0.7-0.3-1.2-0.3c-0.5,0-0.9,0.1-1.2,0.3
			c-0.3,0.2-0.6,0.4-0.8,0.8c-0.2,0.3-0.3,0.7-0.4,1.1c-0.1,0.4-0.1,0.8-0.1,1.2S60.7,21.9,60.7,22.3z"/>
		<path class="st0" d="M72.9,15.9v1.9h0c0.1-0.3,0.3-0.6,0.5-0.9c0.2-0.3,0.5-0.5,0.8-0.7c0.3-0.2,0.6-0.3,0.9-0.5s0.7-0.2,1-0.2
			c0.2,0,0.4,0,0.6,0.1v2.7c-0.1,0-0.3-0.1-0.5-0.1c-0.2,0-0.4,0-0.5,0c-0.5,0-1,0.1-1.3,0.3c-0.4,0.2-0.7,0.4-0.9,0.7
			s-0.4,0.7-0.5,1.1c-0.1,0.4-0.1,0.8-0.1,1.3v4.7h-2.9V15.9H72.9z"/>
		<path class="st0" d="M80.3,23.7c0.1,0.2,0.3,0.4,0.5,0.5s0.4,0.2,0.7,0.3c0.3,0.1,0.5,0.1,0.8,0.1c0.2,0,0.4,0,0.6-0.1
			c0.2,0,0.4-0.1,0.6-0.2c0.2-0.1,0.3-0.2,0.5-0.4s0.2-0.4,0.2-0.6c0-0.4-0.3-0.8-0.9-1c-0.6-0.2-1.4-0.4-2.4-0.6
			c-0.4-0.1-0.8-0.2-1.2-0.3c-0.4-0.1-0.8-0.3-1.1-0.5c-0.3-0.2-0.6-0.5-0.7-0.8c-0.2-0.3-0.3-0.7-0.3-1.2c0-0.7,0.1-1.2,0.4-1.7
			c0.3-0.4,0.6-0.8,1-1c0.4-0.2,0.9-0.4,1.5-0.5s1.1-0.2,1.7-0.2s1.1,0.1,1.6,0.2c0.5,0.1,1,0.3,1.4,0.5c0.4,0.3,0.8,0.6,1,1
			s0.4,1,0.5,1.6H84c0-0.6-0.2-0.9-0.6-1.1c-0.4-0.2-0.8-0.3-1.3-0.3c-0.2,0-0.3,0-0.5,0c-0.2,0-0.4,0.1-0.5,0.1s-0.3,0.2-0.4,0.3
			c-0.1,0.1-0.2,0.3-0.2,0.5c0,0.3,0.1,0.5,0.3,0.6c0.2,0.2,0.4,0.3,0.7,0.4c0.3,0.1,0.6,0.2,1,0.3s0.8,0.2,1.2,0.3
			c0.4,0.1,0.8,0.2,1.2,0.3c0.4,0.1,0.7,0.3,1.1,0.5c0.3,0.2,0.6,0.5,0.7,0.8c0.2,0.3,0.3,0.7,0.3,1.2c0,0.7-0.1,1.3-0.4,1.7
			c-0.3,0.5-0.6,0.8-1.1,1.1c-0.4,0.3-1,0.5-1.5,0.6c-0.6,0.1-1.2,0.2-1.7,0.2c-0.6,0-1.2-0.1-1.8-0.2s-1.1-0.3-1.5-0.6
			s-0.8-0.7-1.1-1.1c-0.3-0.5-0.4-1-0.5-1.7h2.7C80.1,23.2,80.1,23.5,80.3,23.7z"/>
		<path class="st0" d="M91.5,23.8c0.4,0.4,1,0.6,1.9,0.6c0.6,0,1.1-0.1,1.5-0.4c0.4-0.3,0.7-0.6,0.8-0.9h2.5c-0.4,1.2-1,2.1-1.9,2.7
			c-0.8,0.5-1.8,0.8-3,0.8c-0.8,0-1.6-0.1-2.2-0.4c-0.7-0.3-1.2-0.6-1.7-1.1c-0.5-0.5-0.8-1.1-1.1-1.7c-0.2-0.7-0.4-1.4-0.4-2.2
			c0-0.8,0.1-1.5,0.4-2.2c0.3-0.7,0.6-1.3,1.1-1.7c0.5-0.5,1-0.9,1.7-1.2c0.7-0.3,1.4-0.4,2.2-0.4c0.9,0,1.7,0.2,2.3,0.5
			c0.7,0.3,1.2,0.8,1.6,1.4c0.4,0.6,0.7,1.2,0.9,2c0.2,0.7,0.3,1.5,0.2,2.3h-7.5C90.9,22.7,91.1,23.4,91.5,23.8z M94.8,18.3
			c-0.3-0.4-0.9-0.6-1.6-0.6c-0.5,0-0.8,0.1-1.1,0.2c-0.3,0.2-0.5,0.3-0.7,0.6S91,19,91,19.3c-0.1,0.3-0.1,0.5-0.1,0.7h4.7
			C95.3,19.2,95.1,18.7,94.8,18.3z"/>
		<path class="st0" d="M105.6,15.9v1.9h-2.1v5.2c0,0.5,0.1,0.8,0.2,1c0.2,0.2,0.5,0.2,1,0.2c0.2,0,0.3,0,0.5,0c0.1,0,0.3,0,0.4-0.1
			v2.2c-0.2,0-0.5,0.1-0.8,0.1c-0.3,0-0.6,0-0.9,0c-0.4,0-0.9,0-1.3-0.1c-0.4-0.1-0.7-0.2-1-0.4c-0.3-0.2-0.5-0.4-0.7-0.7
			c-0.2-0.3-0.3-0.7-0.3-1.3v-6.1h-1.7v-1.9h1.7v-3.1h2.9v3.1H105.6z"/>
		<path class="st0" d="M121.7,15.7c-0.2-0.3-0.4-0.6-0.7-0.8c-0.3-0.2-0.6-0.4-1-0.5c-0.4-0.1-0.7-0.2-1.1-0.2
			c-0.7,0-1.3,0.1-1.8,0.4c-0.5,0.3-0.9,0.6-1.2,1.1c-0.3,0.5-0.5,1-0.7,1.6c-0.1,0.6-0.2,1.2-0.2,1.8c0,0.6,0.1,1.2,0.2,1.8
			c0.1,0.6,0.4,1.1,0.7,1.5c0.3,0.5,0.7,0.8,1.2,1.1s1.1,0.4,1.8,0.4c1,0,1.7-0.3,2.3-0.9s0.9-1.4,1-2.3h3.1
			c-0.1,0.9-0.3,1.7-0.6,2.4c-0.3,0.7-0.8,1.3-1.3,1.9c-0.6,0.5-1.2,0.9-1.9,1.2s-1.6,0.4-2.4,0.4c-1.1,0-2.1-0.2-3-0.6
			s-1.6-0.9-2.2-1.6c-0.6-0.7-1.1-1.5-1.4-2.4c-0.3-0.9-0.5-1.9-0.5-2.9c0-1.1,0.2-2.1,0.5-3c0.3-0.9,0.8-1.7,1.4-2.4
			c0.6-0.7,1.3-1.2,2.2-1.6s1.9-0.6,3-0.6c0.8,0,1.5,0.1,2.2,0.3c0.7,0.2,1.3,0.6,1.9,1c0.6,0.4,1,1,1.4,1.6
			c0.4,0.6,0.6,1.4,0.7,2.2H122C122,16.4,121.9,16,121.7,15.7z"/>
		<path class="st0" d="M126.9,18.8c0.3-0.7,0.6-1.3,1.1-1.7s1-0.8,1.7-1.1c0.7-0.3,1.4-0.4,2.2-0.4c0.8,0,1.6,0.1,2.2,0.4
			c0.7,0.3,1.2,0.6,1.7,1.1c0.5,0.5,0.8,1.1,1.1,1.7c0.3,0.7,0.4,1.4,0.4,2.3c0,0.8-0.1,1.6-0.4,2.3c-0.3,0.7-0.6,1.2-1.1,1.7
			c-0.5,0.5-1,0.8-1.7,1.1c-0.7,0.3-1.4,0.4-2.2,0.4c-0.8,0-1.6-0.1-2.2-0.4c-0.7-0.3-1.2-0.6-1.7-1.1c-0.5-0.5-0.8-1.1-1.1-1.7
			c-0.3-0.7-0.4-1.4-0.4-2.3C126.5,20.2,126.7,19.5,126.9,18.8z M129.5,22.3c0.1,0.4,0.2,0.8,0.4,1.1c0.2,0.3,0.5,0.6,0.8,0.8
			c0.3,0.2,0.7,0.3,1.2,0.3c0.5,0,0.9-0.1,1.2-0.3c0.3-0.2,0.6-0.4,0.8-0.8c0.2-0.3,0.3-0.7,0.4-1.1c0.1-0.4,0.1-0.8,0.1-1.2
			s0-0.8-0.1-1.2c-0.1-0.4-0.2-0.8-0.4-1.1c-0.2-0.3-0.5-0.6-0.8-0.8c-0.3-0.2-0.7-0.3-1.2-0.3c-0.5,0-0.9,0.1-1.2,0.3
			c-0.3,0.2-0.6,0.4-0.8,0.8c-0.2,0.3-0.3,0.7-0.4,1.1c-0.1,0.4-0.1,0.8-0.1,1.2S129.4,21.9,129.5,22.3z"/>
		<path class="st0" d="M141.9,11.9v14.4h-2.9V11.9H141.9z"/>
		<path class="st0" d="M146.9,11.9v14.4h-2.9V11.9H146.9z"/>
		<path class="st0" d="M152,23.8c0.4,0.4,1,0.6,1.9,0.6c0.6,0,1.1-0.1,1.5-0.4c0.4-0.3,0.7-0.6,0.8-0.9h2.5c-0.4,1.2-1,2.1-1.9,2.7
			c-0.8,0.5-1.8,0.8-3,0.8c-0.8,0-1.6-0.1-2.2-0.4c-0.7-0.3-1.2-0.6-1.7-1.1c-0.5-0.5-0.8-1.1-1.1-1.7c-0.2-0.7-0.4-1.4-0.4-2.2
			c0-0.8,0.1-1.5,0.4-2.2c0.3-0.7,0.6-1.3,1.1-1.7c0.5-0.5,1-0.9,1.7-1.2c0.7-0.3,1.4-0.4,2.2-0.4c0.9,0,1.7,0.2,2.3,0.5
			c0.7,0.3,1.2,0.8,1.6,1.4c0.4,0.6,0.7,1.2,0.9,2c0.2,0.7,0.3,1.5,0.2,2.3h-7.5C151.4,22.7,151.6,23.4,152,23.8z M155.3,18.3
			c-0.3-0.4-0.9-0.6-1.6-0.6c-0.5,0-0.8,0.1-1.1,0.2c-0.3,0.2-0.5,0.3-0.7,0.6s-0.3,0.5-0.4,0.7c-0.1,0.3-0.1,0.5-0.1,0.7h4.7
			C155.9,19.2,155.6,18.7,155.3,18.3z"/>
		<path class="st0" d="M170.2,27c-0.1,0.5-0.4,1-0.7,1.5c-0.4,0.5-0.9,0.9-1.6,1.2c-0.7,0.3-1.7,0.5-2.9,0.5c-0.5,0-1-0.1-1.6-0.2
			c-0.5-0.1-1-0.3-1.5-0.6c-0.4-0.3-0.8-0.6-1.1-1s-0.5-0.9-0.5-1.5h2.8c0.1,0.5,0.4,0.9,0.8,1.1s0.8,0.3,1.4,0.3
			c0.8,0,1.4-0.2,1.8-0.7c0.4-0.5,0.5-1.1,0.5-1.8v-1.4h0c-0.3,0.6-0.8,1-1.3,1.2c-0.6,0.3-1.2,0.4-1.8,0.4c-0.8,0-1.5-0.1-2-0.4
			c-0.6-0.3-1-0.7-1.4-1.1c-0.4-0.5-0.6-1-0.8-1.7c-0.2-0.6-0.3-1.3-0.3-2c0-0.7,0.1-1.3,0.3-1.9c0.2-0.6,0.5-1.2,0.9-1.7
			s0.8-0.9,1.4-1.1c0.6-0.3,1.2-0.4,1.9-0.4c0.7,0,1.3,0.1,1.8,0.4c0.5,0.3,1,0.7,1.3,1.3h0v-1.4h2.7v9.8
			C170.4,26,170.3,26.5,170.2,27z M166.3,23.6c0.3-0.2,0.6-0.4,0.8-0.6c0.2-0.3,0.4-0.6,0.5-0.9c0.1-0.3,0.2-0.7,0.2-1.1
			c0-0.4,0-0.8-0.1-1.2c-0.1-0.4-0.2-0.7-0.4-1c-0.2-0.3-0.4-0.5-0.7-0.7c-0.3-0.2-0.7-0.3-1.2-0.3c-0.4,0-0.7,0.1-1,0.2
			s-0.5,0.4-0.7,0.7c-0.2,0.3-0.3,0.6-0.4,0.9c-0.1,0.4-0.1,0.7-0.1,1.1c0,0.4,0,0.7,0.1,1.1s0.2,0.7,0.4,1c0.2,0.3,0.4,0.5,0.7,0.7
			c0.3,0.2,0.7,0.3,1.1,0.3C165.6,23.8,166,23.7,166.3,23.6z"/>
		<path class="st0" d="M175.5,23.8c0.4,0.4,1,0.6,1.9,0.6c0.6,0,1.1-0.1,1.5-0.4c0.4-0.3,0.7-0.6,0.8-0.9h2.5
			c-0.4,1.2-1,2.1-1.9,2.7c-0.8,0.5-1.8,0.8-3,0.8c-0.8,0-1.6-0.1-2.2-0.4c-0.7-0.3-1.2-0.6-1.7-1.1c-0.5-0.5-0.8-1.1-1.1-1.7
			c-0.2-0.7-0.4-1.4-0.4-2.2c0-0.8,0.1-1.5,0.4-2.2c0.3-0.7,0.6-1.3,1.1-1.7c0.5-0.5,1-0.9,1.7-1.2c0.7-0.3,1.4-0.4,2.2-0.4
			c0.9,0,1.7,0.2,2.3,0.5c0.7,0.3,1.2,0.8,1.6,1.4c0.4,0.6,0.7,1.2,0.9,2c0.2,0.7,0.3,1.5,0.2,2.3h-7.5
			C174.9,22.7,175.1,23.4,175.5,23.8z M178.8,18.3c-0.3-0.4-0.9-0.6-1.6-0.6c-0.5,0-0.8,0.1-1.1,0.2c-0.3,0.2-0.5,0.3-0.7,0.6
			S175,19,175,19.3c-0.1,0.3-0.1,0.5-0.1,0.7h4.7C179.3,19.2,179.1,18.7,178.8,18.3z"/>
		<path class="st0" d="M195.7,11.9c0.9,0,1.8,0.1,2.6,0.4c0.8,0.3,1.5,0.7,2.1,1.3c0.6,0.6,1,1.3,1.4,2.2c0.3,0.9,0.5,1.9,0.5,3.1
			c0,1-0.1,2-0.4,2.9c-0.3,0.9-0.7,1.7-1.2,2.3c-0.5,0.6-1.2,1.2-2,1.5c-0.8,0.4-1.8,0.6-2.9,0.6h-6.2V11.9H195.7z M195.5,23.6
			c0.5,0,0.9-0.1,1.3-0.2c0.4-0.1,0.8-0.4,1.1-0.7c0.3-0.3,0.6-0.8,0.8-1.3c0.2-0.6,0.3-1.2,0.3-2c0-0.7-0.1-1.4-0.2-2
			c-0.1-0.6-0.4-1.1-0.7-1.5c-0.3-0.4-0.7-0.7-1.3-1c-0.5-0.2-1.2-0.3-2-0.3h-2.3v9.1H195.5z"/>
		<path class="st0" d="M211,26.3v-1.5H211c-0.4,0.6-0.8,1-1.4,1.3c-0.6,0.3-1.2,0.4-1.8,0.4c-0.8,0-1.4-0.1-1.9-0.3
			c-0.5-0.2-0.9-0.5-1.2-0.9s-0.5-0.8-0.6-1.4s-0.2-1.1-0.2-1.8v-6.4h2.9v5.9c0,0.9,0.1,1.5,0.4,1.9c0.3,0.4,0.7,0.6,1.4,0.6
			c0.8,0,1.3-0.2,1.7-0.7c0.3-0.5,0.5-1.2,0.5-2.3v-5.5h2.9v10.4H211z"/>
		<path class="st0" d="M218.6,11.9v5.2h0c0.3-0.5,0.8-0.9,1.4-1.2c0.6-0.2,1.2-0.4,1.9-0.4c0.5,0,1,0.1,1.6,0.3c0.5,0.2,1,0.5,1.4,1
			s0.7,1,1,1.7c0.3,0.7,0.4,1.5,0.4,2.5s-0.1,1.8-0.4,2.5c-0.3,0.7-0.6,1.3-1,1.7s-0.9,0.8-1.4,1s-1,0.3-1.6,0.3
			c-0.8,0-1.5-0.1-2.1-0.4c-0.6-0.2-1.1-0.7-1.4-1.2h0v1.3h-2.7V11.9H218.6z M223.2,19.8c-0.1-0.4-0.2-0.8-0.4-1.1
			c-0.2-0.3-0.5-0.6-0.8-0.7c-0.3-0.2-0.7-0.3-1.1-0.3c-0.4,0-0.8,0.1-1.1,0.3c-0.3,0.2-0.6,0.4-0.8,0.7c-0.2,0.3-0.3,0.7-0.4,1.1
			s-0.1,0.8-0.1,1.3c0,0.4,0,0.8,0.1,1.2c0.1,0.4,0.2,0.8,0.4,1.1c0.2,0.3,0.5,0.6,0.8,0.7c0.3,0.2,0.7,0.3,1.1,0.3
			c0.4,0,0.8-0.1,1.1-0.3c0.3-0.2,0.6-0.4,0.8-0.7c0.2-0.3,0.3-0.7,0.4-1.1c0.1-0.4,0.1-0.8,0.1-1.2
			C223.4,20.6,223.3,20.2,223.2,19.8z"/>
		<path class="st0" d="M230.8,11.9v14.4h-2.9V11.9H230.8z"/>
		<path class="st0" d="M232.9,14.2v-2.4h2.9v2.4H232.9z M235.8,15.9v10.4h-2.9V15.9H235.8z"/>
		<path class="st0" d="M240.6,15.9v1.5h0.1c0.4-0.6,0.8-1,1.4-1.3c0.6-0.3,1.2-0.4,1.8-0.4c0.8,0,1.4,0.1,1.9,0.3
			c0.5,0.2,0.9,0.5,1.2,0.9c0.3,0.4,0.5,0.8,0.6,1.4c0.1,0.5,0.2,1.1,0.2,1.8v6.4h-2.9v-5.9c0-0.9-0.1-1.5-0.4-1.9s-0.7-0.6-1.4-0.6
			c-0.8,0-1.3,0.2-1.7,0.7c-0.3,0.5-0.5,1.2-0.5,2.3v5.5h-2.9V15.9H240.6z"/>
	</g>
	<circle class="st0" cx="19.3" cy="19.1" r="18.1"/>
</g>
</svg>
