<svg xmlns="http://www.w3.org/2000/svg" id="Capa_2" data-name="Capa 2" viewBox="0 0 202 56"><defs><style>      .cls-1 {        fill: #fff;      }      .cls-2 {        fill: #ffc000;      }    </style></defs><g id="Capa_1-2" data-name="Capa 1"><g><polygon class="cls-2" points="56.75 6.7 85 6.7 85 14.17 66.1 14.17 66.1 20.88 83.16 20.88 83.16 28.31 66.1 28.36 66.1 35.12 85.51 35.12 85.51 42.6 56.75 42.6 56.75 6.7"></polygon><polygon class="cls-2" points="90.02 6.7 99.37 6.7 99.37 34.61 114.54 34.61 114.54 42.6 90.02 42.6 90.02 6.7"></polygon><rect class="cls-2" x="118.78" y="6.69" width="9.35" height="35.9"></rect><polygon class="cls-1" points="135.51 6.86 141.49 6.86 141.49 7.93 136.69 7.93 136.69 10.59 140.99 10.59 140.99 11.67 136.69 11.67 136.69 14.42 141.64 14.42 141.64 15.49 135.51 15.49 135.51 6.86"></polygon><polygon class="cls-1" points="149.29 6.86 150.46 6.86 150.46 15.49 149.27 15.49 144.35 8.81 144.35 15.49 143.17 15.49 143.17 6.86 144.36 6.86 149.29 13.55 149.29 6.86"></polygon><path class="cls-1" d="M158.75,11.27h1.05v3.17c-.44,.35-.94,.62-1.52,.83-.58,.21-1.16,.31-1.73,.31-.83,0-1.59-.2-2.28-.59-.69-.39-1.23-.92-1.63-1.6-.4-.68-.6-1.42-.6-2.23s.2-1.54,.6-2.21c.4-.67,.95-1.2,1.65-1.59,.69-.39,1.47-.58,2.31-.58,.6,0,1.18,.11,1.75,.32,.57,.21,1.06,.5,1.48,.87l-.68,.86c-.34-.32-.74-.57-1.19-.75-.45-.18-.9-.27-1.37-.27-.61,0-1.18,.15-1.7,.44-.52,.3-.92,.7-1.22,1.21-.3,.51-.45,1.07-.45,1.68s.15,1.17,.46,1.68c.3,.51,.71,.92,1.23,1.22,.52,.3,1.08,.45,1.7,.45,.36,0,.73-.06,1.1-.18,.37-.12,.72-.29,1.04-.5v-2.57Z"></path><polygon class="cls-1" points="161.78 6.86 162.96 6.86 162.96 14.42 166.73 14.42 166.73 15.49 161.78 15.49 161.78 6.86"></polygon><rect class="cls-1" x="167.92" y="6.86" width="1.18" height="8.63"></rect><polygon class="cls-1" points="178.77 6.86 179.95 6.86 179.95 10.71 184.88 10.71 184.88 6.86 186.07 6.86 186.07 15.49 184.88 15.49 184.88 11.78 179.95 11.78 179.95 15.49 178.77 15.49 178.77 6.86"></polygon><polygon class="cls-1" points="135.51 20.49 136.69 20.49 136.69 28.05 140.46 28.05 140.46 29.12 135.51 29.12 135.51 20.49"></polygon><path class="cls-1" d="M143.66,25.95h3.62l-1.82-4.19-1.79,4.19Zm4.98,3.17l-.91-2.1h-4.54l-.9,2.1h-1.24l3.83-8.63h1.23l3.81,8.63h-1.28Z"></path><polygon class="cls-1" points="157.12 20.49 158.29 20.49 158.29 29.12 157.09 29.12 152.17 22.44 152.17 29.12 150.99 29.12 150.99 20.49 152.19 20.49 157.12 27.19 157.12 20.49"></polygon><path class="cls-1" d="M179.87,25.95h3.62l-1.82-4.19-1.79,4.19Zm4.98,3.17l-.91-2.1h-4.54l-.9,2.1h-1.24l3.83-8.63h1.23l3.81,8.63h-1.28Z"></path><polygon class="cls-1" points="195.87 20.49 201.85 20.49 201.85 21.56 197.05 21.56 197.05 24.23 201.35 24.23 201.35 25.3 197.05 25.3 197.05 28.05 202 28.05 202 29.12 195.87 29.12 195.87 20.49"></polygon><rect class="cls-1" x="135.51" y="34.12" width="1.18" height="8.63"></rect><polygon class="cls-1" points="145.04 34.12 146.21 34.12 146.21 42.75 145.01 42.75 140.09 36.07 140.09 42.75 138.91 42.75 138.91 34.12 140.1 34.12 145.04 40.82 145.04 34.12"></polygon><polygon class="cls-1" points="154.94 34.12 161.67 34.12 161.67 35.21 158.89 35.21 158.89 42.75 157.71 42.75 157.71 35.21 154.94 35.21 154.94 34.12"></polygon><rect class="cls-1" x="162.79" y="34.12" width="1.18" height="8.63"></rect><polygon class="cls-1" points="165.08 34.12 171.81 34.12 171.81 35.21 169.03 35.21 169.03 42.75 167.85 42.75 167.85 35.21 165.08 35.21 165.08 34.12"></polygon><polygon class="cls-1" points="180.78 34.12 187.5 34.12 187.5 35.21 184.72 35.21 184.72 42.75 183.54 42.75 183.54 35.21 180.78 35.21 180.78 34.12"></polygon><polygon class="cls-1" points="188.34 34.12 194.32 34.12 194.32 35.19 189.52 35.19 189.52 37.86 193.82 37.86 193.82 38.93 189.52 38.93 189.52 41.68 194.47 41.68 194.47 42.75 188.34 42.75 188.34 34.12"></polygon><path class="cls-1" d="M25.88,16.29c.07,.06,.14,.1,.21,.14,.05,.03,.09,.05,.13,.07l.48,.25v3.99c0,.16,.09,.31,.23,.39,.14,.08,.31,.08,.46-.01l.83-.55,.82,.55c.07,.05,.16,.07,.24,.07,.08,0,.16-.02,.22-.06,.14-.08,.23-.23,.23-.39v-2.41l.84,.44c.44,.22,1,.23,1.46,0l6.72-3.35c.2-.13,.32-.37,.22-.57-.1-.2-.35-.28-.58-.17l-6.76,3.42c-.21,.11-.45,.1-.66,0l-1.28-.65v-.89c0-.25-.13-.45-.37-.45s-.36,.25-.36,.5l-.04,3.56-.48-.34c-.15-.09-.33-.09-.48,0l-.53,.35v-4.56c0-.25-.08-.5-.36-.5-.25,0-.39,.2-.39,.45v.3l-.12-.06s-.16-.08-.18-.1c-.18-.11-.29-.36-.29-.57,0-.34,.27-.61,.61-.61,.07,0,.13,.01,.18,.03l.04,.02s.04,.01,.06,.02l3.58,1.81c.45,.22,1,.22,1.45,0l6.74-3.38c.15-.08,.25-.24,.25-.4s-.1-.33-.25-.4l-4.37-2.19c-.43-.22-.93-.22-1.36,0l-5.29,2.65c-.11,.05-.19,.14-.23,.26-.04,.11-.03,.23,.03,.34,.11,.22,.41,.21,.63,.1l5.16-2.6c.17-.09,.58-.09,.75,0l3.7,1.83-6.21,3.12c-.21,.11-.52,0-.72-.1l-3.62-1.81-.04-.02c-.17-.06-.28-.12-.47-.12-.82,0-1.42,.63-1.42,1.45,0,.46,.19,.88,.55,1.17"></path><path class="cls-1" d="M10.09,18.63c.23,0,.41-.19,.41-.42s-.19-.42-.41-.42c-.57,0-1.03-.46-1.03-1.04,0-.38,.2-.71,.52-.9,.13-.07,.21-.21,.21-.36s-.08-.29-.21-.36c-.33-.19-.52-.52-.52-.9,0-.57,.46-1.03,1.03-1.03,.9,0,1.83,.9,2.79,1.91l.16,.17c.16,.17,.32,.34,.48,.5l.59,.62c.94,.99,2.1,2.22,3.44,2.22,1.03,0,1.86-.84,1.86-1.87,0-.47-.18-.92-.49-1.26,.31-.34,.49-.79,.49-1.26,0-1.03-.83-1.87-1.86-1.87-.23,0-.41,.19-.41,.42s.19,.42,.41,.42c.57,0,1.03,.46,1.03,1.03,0,.38-.2,.71-.52,.9-.13,.07-.21,.21-.21,.36s.08,.29,.21,.36c.33,.19,.52,.52,.52,.9,0,.57-.46,1.04-1.03,1.04-.9,0-1.82-.89-2.83-1.96l-.6-.62c-.16-.16-.32-.33-.48-.5l-.16-.17c-1.09-1.15-2.17-2.17-3.39-2.17-1.03,0-1.86,.84-1.86,1.87,0,.47,.18,.92,.49,1.26-.31,.34-.49,.79-.49,1.26,0,1.03,.84,1.87,1.86,1.87"></path><path class="cls-1" d="M11.11,12.18c.23,0,.41-.19,.41-.42,0-.57,.46-1.04,1.03-1.04,.37,0,.71,.2,.89,.53,.07,.13,.21,.21,.36,.21s.29-.08,.36-.21c.19-.33,.52-.53,.89-.53,.57,0,1.03,.46,1.03,1.04,0,.82-.77,1.69-1.6,2.51-.17,.16-.17,.42,0,.59,.08,.08,.19,.13,.3,.13s.21-.04,.29-.12c.9-.88,1.86-1.91,1.86-3.1,0-1.03-.84-1.87-1.86-1.87-.47,0-.92,.18-1.26,.49-.34-.31-.79-.49-1.26-.49-1.03,0-1.86,.84-1.86,1.87,0,.23,.19,.42,.41,.42"></path><path class="cls-1" d="M16.52,18.83c-.23,0-.41,.19-.41,.42,0,.57-.46,1.04-1.03,1.04-.37,0-.71-.2-.89-.53-.07-.13-.21-.21-.36-.21s-.29,.08-.36,.21c-.19,.33-.52,.53-.89,.53-.57,0-1.03-.46-1.03-1.04,0-.82,.77-1.69,1.6-2.5,.17-.16,.17-.42,0-.59-.16-.17-.42-.17-.59,0-.89,.87-1.85,1.9-1.85,3.09,0,1.03,.84,1.87,1.86,1.87,.47,0,.92-.18,1.26-.49,.34,.31,.78,.49,1.26,.49,1.03,0,1.86-.84,1.86-1.87,0-.23-.19-.42-.41-.42"></path><path class="cls-1" d="M22.31,27.04H4.89V4.94H22.31V27.04Zm18.5,0H23.39V4.94h17.42V27.04Zm-10.23,18.69l9.04-9.06c-1.85,3.54-5.55,6.69-9.04,9.06m-7.73,4.45c-.07-.03-.15-.07-.25-.12l18.21-18.26v.42c0,.83-.13,1.65-.37,2.45l-13.05,13.08c-2.19,1.29-3.95,2.14-4.55,2.43m-12.09-7.81c-.44-.39-.87-.8-1.28-1.22l12.99-13.02h2.49l-14.2,14.24Zm2.01,1.66c-.47-.36-.93-.73-1.38-1.12l14.74-14.78h2.49l-15.86,15.9Zm2.12,1.55c-.48-.33-.97-.68-1.45-1.04L29.81,28.12h2.49L14.89,45.58Zm2.22,1.45c-.5-.31-1-.63-1.52-.98l17.88-17.93h2.49l-18.86,18.91Zm2.31,1.36c-.5-.28-1.03-.59-1.58-.92l19.3-19.35h2.49l-20.21,20.27Zm.76,.42l20.63-20.69h0v2.49l-19,19.05c-.45-.23-1.01-.52-1.64-.86m-1.38-20.69h2.49l-12.39,12.42c-.41-.44-.79-.88-1.16-1.34l11.05-11.08Zm-13.91,4.09v-1.18l2.9-2.91h2.49l-5.3,5.31c-.06-.4-.1-.81-.1-1.22m0-4.09h1.73l-1.73,1.73v-1.73Zm.3,6.29l6.27-6.29h2.5l-8.09,8.11c-.28-.6-.51-1.21-.67-1.83m1.07,2.6l8.86-8.89h2.49l-10.38,10.41c-.36-.5-.69-1.01-.98-1.52m16.36,14.25c.07,.03,.15,.05,.22,.05s.15-.01,.22-.05c.77-.35,18.83-8.57,18.83-19.05V4.39c0-.3-.24-.54-.54-.54H4.35c-.3,0-.54,.24-.54,.54v27.82c0,10.48,18.05,18.7,18.82,19.05"></path><path class="cls-1" d="M44.81,33.13c0,11.27-19.55,20.79-21.87,21.87-2.31-1.08-21.86-10.6-21.86-21.87V1.08H44.81V33.13Zm-21.86,22.87c.52-.24,2.35-.91,4.25-1.95l2.26-1.29c1.1-.65,2.27-1.39,3.47-2.2l.75-.52c1.04-.73,2.1-1.51,3.12-2.35l1.02-.86c4.4-3.8,8.07-8.53,8.07-13.71V.54c0-.3-.24-.54-.54-.54H.54C.24,0,0,.24,0,.54V33.13c0,5.19,3.69,9.92,8.1,13.73l1.05,.88c1.02,.83,2.05,1.6,3.09,2.32l.73,.51c1.16,.79,2.29,1.5,3.36,2.13l2.28,1.3c1.94,1.07,3.81,1.76,4.34,2h0Z"></path><path class="cls-1" d="M166.57,24.9h1.05v3.17c-.44,.35-.94,.62-1.52,.83-.58,.21-1.16,.31-1.73,.31-.83,0-1.59-.2-2.28-.58-.69-.39-1.23-.93-1.63-1.6-.4-.68-.6-1.42-.6-2.23s.2-1.54,.6-2.21c.4-.67,.95-1.2,1.65-1.59,.69-.39,1.47-.58,2.31-.58,.6,0,1.18,.11,1.75,.32,.57,.21,1.06,.51,1.48,.87l-.67,.86c-.35-.32-.74-.57-1.19-.75-.45-.18-.9-.27-1.37-.27-.61,0-1.18,.15-1.7,.44-.52,.3-.92,.7-1.22,1.21-.3,.51-.45,1.07-.45,1.68s.15,1.17,.46,1.68c.3,.51,.71,.92,1.23,1.22,.52,.3,1.08,.45,1.7,.45,.36,0,.73-.06,1.1-.18,.37-.12,.72-.29,1.04-.5v-2.57Z"></path><path class="cls-1" d="M171.27,27.46c.44,.45,1.04,.67,1.81,.67s1.36-.22,1.8-.67c.43-.45,.65-1.07,.65-1.87v-5.11h1.18v5.11c0,1.13-.32,2.01-.96,2.65-.64,.64-1.53,.96-2.66,.96s-2.03-.32-2.68-.96c-.65-.64-.97-1.52-.97-2.65v-5.11h1.18v5.11c0,.8,.22,1.42,.66,1.87"></path><path class="cls-1" d="M174.67,41.1c.44,.45,1.04,.67,1.81,.67s1.36-.22,1.8-.67c.44-.45,.65-1.07,.65-1.87v-5.11h1.18v5.11c0,1.13-.32,2.01-.96,2.65-.64,.64-1.53,.96-2.67,.96s-2.03-.32-2.68-.96c-.65-.64-.97-1.52-.97-2.65v-5.11h1.18v5.11c0,.8,.22,1.42,.66,1.87"></path><path class="cls-1" d="M175.18,8.08c-.43-.13-.83-.19-1.19-.19-.5,0-.9,.1-1.2,.29-.3,.19-.45,.46-.45,.79,0,.3,.09,.55,.27,.75,.18,.19,.4,.35,.66,.46,.26,.11,.63,.24,1.1,.39,.58,.18,1.05,.36,1.41,.52,.36,.16,.67,.41,.92,.73,.25,.33,.38,.76,.38,1.29,0,.49-.13,.93-.4,1.3-.27,.37-.64,.65-1.12,.86-.48,.2-1.03,.3-1.66,.3s-1.25-.12-1.85-.37c-.6-.25-1.12-.57-1.55-.99l.53-1.02c.41,.4,.87,.71,1.38,.93,.51,.22,1.01,.33,1.49,.33,.57,0,1.03-.11,1.36-.34,.33-.23,.5-.53,.5-.92,0-.3-.09-.56-.27-.75-.18-.2-.41-.35-.68-.47-.27-.12-.65-.24-1.11-.38-.57-.17-1.04-.34-1.4-.5-.36-.17-.67-.41-.92-.73-.25-.32-.37-.74-.37-1.27,0-.46,.13-.87,.38-1.22,.25-.35,.61-.63,1.07-.81,.46-.19,.99-.28,1.6-.28,.52,0,1.02,.07,1.52,.23,.5,.15,.94,.36,1.32,.61l-.49,1.06c-.4-.26-.82-.45-1.25-.57"></path><path class="cls-1" d="M192.84,24.9h1.05v3.17c-.44,.35-.94,.62-1.52,.83-.58,.21-1.16,.31-1.74,.31-.83,0-1.59-.2-2.27-.58-.69-.39-1.23-.93-1.63-1.6-.4-.68-.6-1.42-.6-2.23s.2-1.54,.6-2.21c.4-.67,.95-1.2,1.65-1.59,.7-.39,1.47-.58,2.31-.58,.6,0,1.18,.11,1.75,.32,.57,.21,1.07,.51,1.48,.87l-.68,.86c-.34-.32-.74-.57-1.19-.75-.45-.18-.9-.27-1.37-.27-.61,0-1.18,.15-1.7,.44-.52,.3-.92,.7-1.22,1.21-.3,.51-.45,1.07-.45,1.68s.15,1.17,.46,1.68c.3,.51,.71,.92,1.23,1.22,.52,.3,1.08,.45,1.7,.45,.36,0,.73-.06,1.1-.18,.37-.12,.72-.29,1.04-.5v-2.57Z"></path><path class="cls-1" d="M152.29,35.35c-.43-.13-.83-.19-1.19-.19-.5,0-.9,.1-1.2,.29-.3,.19-.45,.46-.45,.79,0,.3,.09,.56,.27,.75,.18,.19,.4,.35,.66,.46,.26,.11,.63,.24,1.1,.39,.58,.18,1.05,.36,1.41,.52,.36,.16,.67,.41,.92,.73,.26,.33,.38,.76,.38,1.29,0,.49-.13,.93-.4,1.3-.27,.37-.64,.65-1.12,.86-.48,.2-1.03,.3-1.66,.3s-1.25-.12-1.85-.37c-.6-.25-1.12-.57-1.55-.99l.53-1.02c.41,.4,.87,.71,1.38,.93,.51,.22,1.01,.33,1.49,.33,.57,0,1.03-.11,1.36-.34,.33-.23,.5-.53,.5-.92,0-.3-.09-.56-.27-.75-.18-.2-.41-.35-.68-.47-.27-.12-.65-.24-1.11-.38-.57-.17-1.04-.34-1.4-.5-.36-.17-.67-.41-.92-.73-.25-.32-.37-.74-.37-1.27,0-.46,.13-.87,.38-1.22,.25-.35,.61-.62,1.07-.81,.46-.19,.99-.28,1.6-.28,.52,0,1.02,.07,1.52,.23,.5,.15,.94,.36,1.32,.61l-.49,1.06c-.4-.26-.82-.45-1.25-.57"></path></g></g></svg>