<?xml version="1.0" encoding="UTF-8"?> <svg xmlns="http://www.w3.org/2000/svg" width="168" height="70" viewBox="0 0 168 70" fill="none"><path d="M68.0588 5.38806H73.7468L69.1684 8.88538L70.9459 14.4155L66.3783 11.0056L61.8215 14.4155L63.6205 8.88538L58.999 5.38806H64.6654L66.3783 0L68.0588 5.38806Z" fill="#00AEEF"></path><path d="M45.3932 6.72141H51.0811L46.492 10.2078L48.2695 15.7379L43.7126 12.328L39.145 15.7379L40.9441 10.2078L36.3334 6.72141H41.9998L43.7126 1.32242L45.3932 6.72141Z" fill="#00B6F1"></path><path d="M26.5087 15.2024H32.1966L27.6182 18.6888L29.3957 24.2189L24.8281 20.82L20.2713 24.2189L22.0703 18.6888L17.4489 15.2024H23.1153L24.8281 9.81436L26.5087 15.2024Z" fill="#00BDF2"></path><path d="M12.1272 34.4486H17.8152L13.2368 37.935L15.0143 43.4651L10.4467 40.0662L5.88982 43.4651L7.67808 37.935L3.06738 34.4486H8.7338L10.4467 29.0605L12.1272 34.4486Z" fill="#5BCBF5"></path><path d="M9.32653 57.1921H15.0145L10.4361 60.6785L12.2136 66.2196L7.646 62.8097L3.08916 66.2196L4.88819 60.6785L0.266724 57.1921H5.93314L7.646 51.804L9.32653 57.1921Z" fill="#8ED8F8"></path><path d="M80.6198 21.6615H79.6395V69.9245H80.6198V21.6615Z" fill="#442580"></path><path d="M87.2343 23.7708C87.2343 23.3009 87.0404 23.0823 86.4694 23.0604V22.7435H94.7536C94.7536 23.6615 94.7536 24.5577 94.8829 25.4648H94.5705C94.4089 24.5468 94.1719 24.2189 93.2777 24.2189H89.6797V27.1261H91.9419C92.6852 27.1261 92.8037 26.8747 92.9007 26.2736H93.2131C93.2131 26.6889 93.1162 27.3665 93.1162 27.8692C93.1243 28.4172 93.1602 28.9644 93.2239 29.5086H92.9115C92.8145 28.9075 92.696 28.6561 91.9527 28.6561H89.6797V31.9349H93.4609C94.355 31.9349 94.6351 31.6289 94.9152 30.219H95.3245C95.207 31.2788 95.1423 32.3439 95.1306 33.4103H86.4479V33.0934C87.0081 33.0934 87.2127 32.8529 87.2127 32.383L87.2343 23.7708Z" fill="#442580"></path><path d="M97.156 27.1151C97.156 26.4812 96.7789 26.2736 96.3911 26.3064V25.9894C97.4534 25.8404 98.4924 25.5539 99.4829 25.1369C99.4142 25.4972 99.3781 25.863 99.3751 26.2299V30.9185C99.3751 31.5196 99.6229 31.9458 100.215 31.9458C100.808 31.9458 101.39 31.4431 101.39 30.4376V27.1588C101.39 26.5249 101.013 26.3173 100.657 26.3501V26.0331C101.721 25.8686 102.76 25.5675 103.749 25.1369C103.695 25.4985 103.673 25.8643 103.684 26.2299V32.3611C103.684 32.9622 103.9 33.2354 104.449 33.2354V33.5524C103.948 33.4938 103.445 33.461 102.941 33.454C102.596 33.454 102.165 33.454 101.616 33.5524V31.9567C101.534 32.4681 101.269 32.9308 100.871 33.2556C100.473 33.5805 99.9712 33.7446 99.4613 33.7163C98.1578 33.7163 97.1667 33.1808 97.1667 31.0824L97.156 27.1151Z" fill="#442580"></path><path d="M108.596 32.525C108.596 32.9622 109.21 33.148 109.577 33.1808V33.4977C108.919 33.4977 108.252 33.3993 107.562 33.3993C106.873 33.3993 106.237 33.3993 105.623 33.4977V33.1808C106.065 33.1808 106.356 33.0496 106.356 32.0878V27.0823C106.356 26.4156 105.989 26.3063 105.591 26.3063V25.9894C106.582 25.7938 107.555 25.5122 108.499 25.1478V26.8637C108.672 26.4285 108.97 26.0561 109.354 25.795C109.739 25.5338 110.191 25.3959 110.654 25.3992C110.85 25.4123 111.044 25.4415 111.236 25.4867L111.333 27.9894H111.225C111.142 27.7412 110.982 27.5275 110.767 27.3813C110.553 27.2351 110.298 27.1646 110.04 27.1807C109.049 27.1807 108.65 28.2736 108.65 29.1261L108.596 32.525Z" fill="#442580"></path><path d="M120.037 29.5961C120.072 29.0465 119.997 28.4953 119.817 27.976C119.636 27.4567 119.353 26.9801 118.985 26.5751C118.617 26.17 118.172 25.8451 117.676 25.6199C117.181 25.3948 116.646 25.2741 116.103 25.2652C115.56 25.2563 115.021 25.3594 114.519 25.5682C114.016 25.777 113.561 26.0872 113.18 26.4799C112.8 26.8727 112.502 27.3398 112.304 27.8529C112.107 28.366 112.015 28.9145 112.033 29.4649C111.997 30.0145 112.072 30.5657 112.253 31.085C112.434 31.6043 112.717 32.081 113.085 32.486C113.453 32.891 113.898 33.2159 114.393 33.4411C114.889 33.6663 115.424 33.787 115.967 33.7958C116.51 33.8047 117.049 33.7016 117.551 33.4928C118.053 33.284 118.509 32.9738 118.889 32.5811C119.27 32.1883 119.568 31.7212 119.765 31.2081C119.962 30.695 120.055 30.1466 120.037 29.5961ZM114.284 28.9622C114.284 28.0223 114.78 26.8857 115.868 26.8857C117.451 26.8857 117.785 28.9513 117.785 30.1644C117.785 31.1043 117.29 32.2409 116.202 32.2409C114.618 32.2409 114.284 30.1753 114.284 28.9622Z" fill="#442580"></path><path d="M87.2343 40.3285C87.2343 39.8585 87.0404 39.6399 86.4694 39.629V39.3448C87.202 39.3448 87.8375 39.4432 88.4516 39.4432C89.0656 39.4432 90.1537 39.4432 90.6061 39.3448V39.6618C89.7659 39.6618 89.6474 40.1099 89.6474 40.5798V48.6018H92.7714C93.8487 48.6018 94.3119 48.0991 94.592 46.8204H95.066C94.8428 47.9 94.7094 48.9968 94.6674 50.0991H86.4479V49.7275C87.0081 49.7275 87.2127 49.498 87.2127 49.0171L87.2343 40.3285Z" fill="#442580"></path><path d="M96.208 44.8968H96.5204C96.7031 44.38 97.0555 43.9426 97.5184 43.6581C97.9813 43.3735 98.5266 43.2591 99.0627 43.334C99.8599 43.334 100.571 43.6509 100.571 44.5143C100.571 45.0389 100.452 45.0826 98.9335 45.2684C97.4145 45.4542 95.3138 45.7056 95.3138 47.9679C95.3081 48.2865 95.3685 48.6027 95.491 48.8961C95.6135 49.1895 95.7955 49.4534 96.0251 49.6709C96.2546 49.8883 96.5267 50.0544 96.8236 50.1583C97.1205 50.2622 97.4356 50.3016 97.7485 50.2739C98.3314 50.3649 98.9279 50.2772 99.4614 50.0221C99.9949 49.767 100.441 49.3562 100.743 48.8422V50.1209C101.239 50.1209 101.734 50.0226 102.187 50.0226C102.639 50.0226 103.156 50.0226 103.663 50.1209V49.8368C103.135 49.8368 102.801 49.5963 102.801 49.028V44.9843C102.801 42.5689 101.153 42.0662 99.2243 42.0662C98.2089 42.0755 97.2027 42.2641 96.2511 42.6236L96.208 44.8968ZM100.571 46.9952C100.537 47.4736 100.333 47.9232 99.9956 48.2593C99.6583 48.5954 99.2116 48.7949 98.7396 48.8204C98.0824 48.8204 97.5653 48.4706 97.5653 47.793C97.5653 47.1154 98.1471 46.6018 100.571 46.1974V46.9952Z" fill="#442580"></path><path d="M104.762 49.8368C105.203 49.8368 105.494 49.7056 105.494 48.7439V43.7165C105.494 43.0498 105.128 42.9405 104.729 42.9405V42.6236C105.721 42.4277 106.694 42.1461 107.638 41.782V43.4979C107.811 43.0627 108.109 42.6903 108.493 42.4291C108.877 42.168 109.33 42.0301 109.792 42.0334C111.085 42.0334 111.947 42.6017 111.947 44.8422V48.9625C111.947 49.5636 112.162 49.8368 112.712 49.8368V50.1537C112.211 50.0946 111.708 50.0618 111.204 50.0554C110.699 50.0606 110.196 50.0934 109.695 50.1537V45.2138C109.695 44.0553 109.232 43.8367 108.704 43.8367C107.939 43.8367 107.627 44.7766 107.627 45.5198V49.1155C107.627 49.7056 108.069 49.8368 108.424 49.8368V50.1537C107.81 50.1537 107.196 50.0554 106.593 50.0554C105.99 50.0554 105.268 50.0554 104.654 50.1537L104.762 49.8368Z" fill="#442580"></path><path d="M122.288 42.2411C121.756 42.346 121.215 42.4081 120.673 42.4269C119.94 42.4269 118.787 42.0553 117.861 42.0553C115.814 42.0553 114.306 42.9733 114.306 44.8641C114.308 45.2389 114.389 45.6089 114.545 45.9485C114.702 46.2881 114.929 46.5893 115.211 46.8313L113.95 47.4324C113.802 47.537 113.681 47.6779 113.6 47.8422C113.519 48.0064 113.48 48.1888 113.487 48.3723C113.487 49.4652 114.198 50.2521 116.094 50.2521C116.611 50.2521 117.107 50.2521 117.85 50.2521C119.401 50.2521 120.005 50.4161 120.005 51.1592C120.005 51.9024 119.197 52.2522 118.109 52.2522C117.021 52.2522 116.59 51.662 116.59 51.2248C116.574 50.999 116.603 50.7721 116.676 50.5581L114.661 51.0937C114.591 51.2825 114.551 51.4819 114.543 51.6838C114.543 52.6565 115.836 53.3341 117.516 53.3341C119.832 53.3341 122.062 52.3287 122.062 50.427C122.062 49.0499 120.985 48.3067 118.971 48.3067H116.902C115.566 48.3067 115.329 48.0882 115.329 47.7712C115.329 47.4543 115.426 47.3559 115.825 47.2357C116.372 47.4547 116.962 47.5444 117.549 47.498C119.337 47.498 121.114 46.722 121.114 44.6236C121.118 44.2433 121.029 43.8678 120.856 43.5307L121.933 43.4651L122.288 42.2411ZM116.45 44.6564C116.427 44.4781 116.441 44.2969 116.493 44.125C116.545 43.953 116.633 43.7943 116.75 43.6597C116.868 43.525 117.012 43.4174 117.174 43.3443C117.336 43.2711 117.511 43.2341 117.689 43.2356C118.453 43.2356 119.057 43.7711 119.057 44.8422C119.072 45.0171 119.051 45.1933 118.994 45.3591C118.937 45.5249 118.846 45.6764 118.726 45.8036C118.607 45.9308 118.462 46.0308 118.302 46.0968C118.142 46.1628 117.969 46.1934 117.796 46.1865C117.606 46.1826 117.418 46.1393 117.244 46.0592C117.071 45.979 116.915 45.8638 116.787 45.7206C116.659 45.5773 116.561 45.4091 116.499 45.2261C116.438 45.0431 116.413 44.8492 116.428 44.6564" fill="#442580"></path><path d="M123.818 43.7711C123.818 43.1372 123.441 42.9296 123.053 42.9624V42.6236C124.115 42.4788 125.154 42.196 126.145 41.782C126.088 42.1214 126.059 42.4651 126.059 42.8094V47.4979C126.059 48.099 126.306 48.5253 126.899 48.5253C127.491 48.5253 128.073 48.0225 128.073 47.0171V43.7383C128.073 43.1044 127.696 42.8968 127.34 42.9296V42.6236C128.391 42.4743 129.419 42.1916 130.4 41.782C130.343 42.1214 130.314 42.4651 130.314 42.8094V48.9624C130.314 49.5635 130.529 49.8368 131.079 49.8368V50.1537C130.578 50.0946 130.074 50.0617 129.57 50.0554C129.226 50.0554 128.795 50.0554 128.245 50.1537V48.5581C128.161 49.0684 127.896 49.5296 127.498 49.8541C127.101 50.1785 126.6 50.3435 126.091 50.3177C124.787 50.3177 123.796 49.7821 123.796 47.6837L123.818 43.7711Z" fill="#442580"></path><path d="M132.986 44.8968H133.298C133.481 44.38 133.833 43.9426 134.296 43.6581C134.759 43.3735 135.304 43.2591 135.841 43.334C136.638 43.334 137.349 43.6509 137.349 44.5143C137.349 45.0389 137.23 45.0826 135.711 45.2684C134.192 45.4542 132.092 45.7056 132.092 47.9679C132.086 48.2855 132.146 48.6007 132.268 48.8933C132.39 49.1858 132.571 49.4492 132.799 49.6665C133.028 49.8838 133.298 50.0501 133.594 50.1547C133.89 50.2593 134.203 50.3 134.516 50.2739C135.098 50.3649 135.695 50.2772 136.228 50.0221C136.762 49.767 137.208 49.3562 137.51 48.8422V50.1209C138.006 50.1209 138.501 50.0226 138.954 50.0226C139.406 50.0226 139.934 50.0226 140.43 50.1209V49.8368C139.902 49.8368 139.568 49.5963 139.568 49.028V44.9843C139.568 42.5689 137.92 42.0662 135.991 42.0662C134.976 42.0753 133.97 42.2639 133.018 42.6236L132.986 44.8968ZM137.349 46.9952C137.315 47.4736 137.111 47.9232 136.773 48.2593C136.436 48.5954 135.989 48.7949 135.517 48.8204C134.86 48.8204 134.343 48.4706 134.343 47.793C134.343 47.1154 134.925 46.6018 137.349 46.1974V46.9952Z" fill="#442580"></path><path d="M149.866 42.2411C149.334 42.3461 148.793 42.4082 148.251 42.4269C147.518 42.4269 146.365 42.0553 145.439 42.0553C143.392 42.0553 141.884 42.9733 141.884 44.8641C141.886 45.2389 141.967 45.6089 142.123 45.9485C142.28 46.2881 142.507 46.5893 142.789 46.8313L141.528 47.4324C141.375 47.5323 141.251 47.6723 141.169 47.8377C141.088 48.0032 141.052 48.1878 141.065 48.3723C141.065 49.4652 141.776 50.2521 143.683 50.2521C144.2 50.2521 144.696 50.2521 145.439 50.2521C146.99 50.2521 147.593 50.4161 147.593 51.1592C147.593 51.9024 146.786 52.2522 145.687 52.2522C144.588 52.2522 144.168 51.662 144.168 51.2248C144.152 50.999 144.182 50.7723 144.254 50.5581L142.239 51.0937C142.168 51.2824 142.128 51.4818 142.121 51.6838C142.121 52.6565 143.414 53.3341 145.094 53.3341C147.41 53.3341 149.64 52.3287 149.64 50.427C149.64 49.0499 148.563 48.3067 146.548 48.3067H144.48C143.144 48.3067 142.907 48.0882 142.907 47.7712C142.907 47.4543 143.004 47.3559 143.403 47.2357C143.95 47.4547 144.54 47.5444 145.127 47.498C146.915 47.498 148.703 46.722 148.703 44.6236C148.704 44.2423 148.611 43.8668 148.434 43.5307L149.511 43.4651L149.866 42.2411ZM144.028 44.6564C144.003 44.4754 144.017 44.2911 144.069 44.1162C144.121 43.9413 144.21 43.7801 144.33 43.6439C144.45 43.5076 144.598 43.3994 144.764 43.327C144.929 43.2547 145.108 43.2197 145.288 43.2247C146.053 43.2247 146.656 43.7602 146.656 44.8313C146.672 45.0061 146.65 45.1824 146.593 45.3481C146.536 45.5139 146.445 45.6655 146.326 45.7927C146.207 45.9199 146.062 46.0199 145.902 46.0859C145.741 46.1519 145.569 46.1825 145.396 46.1756C145.205 46.1717 145.017 46.1283 144.844 46.0482C144.67 45.9681 144.515 45.8529 144.387 45.7097C144.259 45.5664 144.161 45.3981 144.099 45.2151C144.037 45.0322 144.013 44.8383 144.028 44.6455" fill="#442580"></path><path d="M158.624 46.3395V45.7165C158.624 43.5307 157.041 42.0552 154.703 42.0552C154.167 42.0311 153.632 42.1191 153.131 42.3138C152.629 42.5086 152.173 42.8059 151.79 43.1873C151.407 43.5687 151.106 44.0259 150.904 44.5306C150.703 45.0353 150.606 45.5766 150.62 46.1209C150.62 49.0062 152.602 50.3177 155.048 50.3177C156.149 50.3735 157.238 50.0542 158.14 49.4105L158.42 47.8149C157.6 48.4111 156.635 48.7665 155.63 48.8422C155.289 48.8728 154.946 48.8306 154.622 48.7183C154.299 48.606 154.002 48.4261 153.751 48.1903C153.501 47.9544 153.301 47.6679 153.167 47.3491C153.032 47.0303 152.964 46.6863 152.969 46.3395H158.624ZM153.033 45.0607C153.033 44.626 153.204 44.209 153.507 43.9015C153.81 43.5941 154.221 43.4214 154.649 43.4214C155.078 43.4214 155.489 43.5941 155.792 43.9015C156.095 44.209 156.265 44.626 156.265 45.0607H153.033Z" fill="#442580"></path><path d="M162.524 50.274C161.608 50.2713 160.703 50.0779 159.863 49.7057C159.863 48.9333 159.831 48.161 159.767 47.3887H160.079C160.27 47.9396 160.631 48.4134 161.108 48.7401C161.586 49.0668 162.154 49.2291 162.729 49.2029C163.354 49.2029 164.119 48.8532 164.119 48.11C164.119 47.3668 163.041 47.2903 161.9 47.0171C160.758 46.7439 159.702 46.2958 159.702 44.8094C159.702 42.7657 161.469 42.0771 163.526 42.0771C164.21 42.079 164.889 42.1858 165.541 42.3941C165.605 43.1701 165.638 43.9023 165.691 44.6455H165.379C165.183 44.1685 164.837 43.7711 164.394 43.5159C163.952 43.2606 163.438 43.162 162.934 43.2356C162.384 43.2356 161.695 43.4542 161.695 44.0225C161.695 44.8313 162.772 44.8969 163.914 45.181C165.056 45.4652 166.133 45.9679 166.133 47.651C166.133 49.8368 163.914 50.3177 162.492 50.3177" fill="#442580"></path><path d="M95.3354 65.9681C94.3161 66.6744 93.1117 67.0551 91.8773 67.061C91.1382 67.09 90.4012 66.9641 89.7121 66.6914C89.023 66.4186 88.3967 66.0048 87.8721 65.4757C87.3476 64.9467 86.9361 64.3137 86.6633 63.6162C86.3904 62.9187 86.2621 62.1716 86.2863 61.4216C86.2774 60.6475 86.4261 59.8799 86.7229 59.1667C87.0197 58.4535 87.4584 57.8101 88.0114 57.2767C88.5645 56.7433 89.22 56.3314 89.9371 56.0667C90.6542 55.8021 91.4174 55.6903 92.179 55.7385C93.1112 55.7184 94.04 55.8589 94.926 56.1538C94.926 57.2467 94.926 58.3396 95.023 59.4325H94.7106C94.6096 58.7876 94.2733 58.2048 93.7684 57.7999C93.2635 57.3949 92.6269 57.1974 91.9851 57.2467C90.0999 57.2467 88.6455 58.744 88.6455 61.2577C88.6487 62.2865 89.0362 63.2758 89.7299 64.0262C90.4236 64.7766 91.3719 65.2323 92.3837 65.3014C93.5305 65.2545 94.6326 64.8371 95.5293 64.1102L95.3354 65.9681Z" fill="#442580"></path><path d="M104.416 62.9081C104.416 62.1073 104.183 61.3243 103.746 60.6575C103.309 59.9907 102.687 59.4696 101.96 59.1598C101.232 58.85 100.43 58.7651 99.6546 58.9159C98.8793 59.0666 98.1652 59.4463 97.6019 60.0073C97.0386 60.5683 96.6511 61.2855 96.488 62.0691C96.325 62.8526 96.3937 63.6676 96.6855 64.4117C96.9772 65.1558 97.4791 65.7959 98.1281 66.2517C98.7772 66.7075 99.5444 66.9587 100.334 66.9737C100.87 66.9995 101.406 66.9126 101.908 66.7185C102.41 66.5243 102.867 66.227 103.25 65.8453C103.633 65.4636 103.935 65.0057 104.136 64.5003C104.336 63.9948 104.432 63.4528 104.416 62.9081ZM98.6531 62.2961C98.6531 61.3561 99.1486 60.2086 100.237 60.2086C101.82 60.2086 102.154 62.2742 102.154 63.4873C102.154 64.4272 101.659 65.5639 100.571 65.5639C98.9871 65.5639 98.6531 63.4983 98.6531 62.2851" fill="#442580"></path><path d="M105.418 66.4928C105.903 66.4928 106.183 66.3616 106.183 65.3999V57.0828C106.183 55.8587 105.925 55.8041 105.418 55.6948V55.3778C106.479 55.2296 107.511 54.9162 108.478 54.4489C108.478 54.886 108.478 55.356 108.478 55.8369V65.4436C108.478 66.3507 108.758 66.5365 109.437 66.5365V66.8534C108.639 66.8534 108.068 66.7551 107.357 66.7551C106.646 66.7551 106.065 66.7551 105.472 66.8534L105.418 66.4928Z" fill="#442580"></path><path d="M110.018 66.4928C110.492 66.4928 110.783 66.3616 110.783 65.3999V57.0828C110.783 55.8587 110.514 55.8041 110.018 55.6948V55.3778C111.079 55.2297 112.111 54.9164 113.078 54.4489C113.078 54.886 113.078 55.356 113.078 55.8369V65.4436C113.078 66.3507 113.358 66.5365 114.037 66.5365V66.8534C113.239 66.8534 112.669 66.7551 111.958 66.7551C111.247 66.7551 110.665 66.7551 110.072 66.8534L110.018 66.4928Z" fill="#442580"></path><path d="M122.795 62.9955V62.3725C122.795 60.1867 121.211 58.7113 118.874 58.7113C118.337 58.6871 117.802 58.7751 117.301 58.9699C116.8 59.1646 116.344 59.462 115.961 59.8433C115.578 60.2247 115.276 60.682 115.075 61.1866C114.874 61.6913 114.777 62.2327 114.791 62.7769C114.791 65.6622 116.773 66.9737 119.218 66.9737C120.32 67.0304 121.408 66.7111 122.31 66.0666L122.59 64.4709C121.771 65.0671 120.805 65.4226 119.8 65.4983C119.459 65.5289 119.116 65.4866 118.793 65.3743C118.469 65.262 118.173 65.0822 117.922 64.8463C117.671 64.6105 117.472 64.3239 117.337 64.0051C117.202 63.6863 117.135 63.3424 117.139 62.9955H122.795ZM117.204 61.7168C117.204 61.282 117.374 60.865 117.677 60.5576C117.98 60.2501 118.391 60.0774 118.82 60.0774C119.248 60.0774 119.659 60.2501 119.962 60.5576C120.265 60.865 120.436 61.282 120.436 61.7168H117.204Z" fill="#442580"></path><path d="M132.382 58.897C131.849 59.0021 131.309 59.0643 130.766 59.0828C130.034 59.0828 128.881 58.7113 127.955 58.7113C125.908 58.7113 124.4 59.6402 124.4 61.52C124.401 61.895 124.482 62.2652 124.638 62.6049C124.794 62.9447 125.022 63.2458 125.305 63.4873L124.044 64.0884C123.891 64.1882 123.767 64.3283 123.685 64.4937C123.604 64.6591 123.568 64.8438 123.581 65.0283C123.581 66.1212 124.292 66.9081 126.188 66.9081C126.705 66.9081 127.201 66.9081 127.944 66.9081C129.495 66.9081 130.098 67.072 130.098 67.8152C130.098 68.5584 129.29 68.9081 128.202 68.9081C127.114 68.9081 126.683 68.3179 126.683 67.8808C126.668 67.6549 126.697 67.4283 126.77 67.2141L124.755 67.7496C124.684 67.9385 124.644 68.1378 124.637 68.3398C124.637 69.3125 125.929 69.9792 127.61 69.9792C129.926 69.9792 132.156 68.9737 132.156 67.072C132.156 65.695 131.079 64.9627 129.064 64.9627H126.996C125.66 64.9627 125.423 64.7441 125.423 64.4272C125.423 64.1102 125.52 64.0119 125.919 63.8917C126.466 64.1099 127.056 64.1996 127.642 64.154C129.431 64.154 131.219 63.378 131.219 61.2796C131.222 60.8993 131.134 60.5239 130.96 60.1867L132.037 60.1211L132.382 58.897ZM126.543 61.3124C126.518 61.1314 126.532 60.9471 126.585 60.7722C126.637 60.5973 126.726 60.4361 126.846 60.2998C126.966 60.1635 127.114 60.0554 127.279 59.983C127.445 59.9106 127.624 59.8757 127.804 59.8807C128.569 59.8807 129.172 60.4162 129.172 61.4872C129.187 61.6621 129.166 61.8383 129.109 62.0041C129.052 62.1699 128.961 62.3215 128.842 62.4487C128.722 62.5759 128.578 62.6758 128.417 62.7419C128.257 62.8079 128.084 62.8384 127.912 62.8315C127.721 62.8276 127.533 62.7843 127.36 62.7042C127.186 62.6241 127.031 62.5089 126.902 62.3656C126.774 62.2224 126.676 62.0541 126.615 61.8711C126.553 61.6881 126.529 61.4943 126.543 61.3015" fill="#442580"></path><path d="M141.183 62.9955V62.3725C141.183 60.1867 139.6 58.7113 137.262 58.7113C136.726 58.6871 136.191 58.7751 135.69 58.9699C135.189 59.1646 134.732 59.462 134.349 59.8433C133.966 60.2247 133.665 60.682 133.464 61.1866C133.262 61.6913 133.166 62.2327 133.179 62.7769C133.179 65.6622 135.162 66.9737 137.607 66.9737C138.708 67.0296 139.797 66.7103 140.699 66.0666L140.979 64.4709C140.16 65.0671 139.194 65.4226 138.189 65.4983C137.848 65.5289 137.505 65.4866 137.181 65.3743C136.858 65.262 136.561 65.0822 136.31 64.8463C136.06 64.6105 135.861 64.3239 135.726 64.0051C135.591 63.6863 135.523 63.3424 135.528 62.9955H141.183ZM135.592 61.7168C135.592 61.282 135.763 60.865 136.066 60.5576C136.369 60.2501 136.78 60.0774 137.208 60.0774C137.637 60.0774 138.048 60.2501 138.351 60.5576C138.654 60.865 138.824 61.282 138.824 61.7168H135.592Z" fill="#442580"></path><path d="M42.5926 54.3178C42.6228 53.1635 42.4195 52.0151 41.9952 50.9437C41.5709 49.8722 40.9346 48.9004 40.1256 48.0882C39.2552 47.2518 38.2276 46.602 37.1041 46.1776C35.9806 45.7532 34.7843 45.5629 33.5866 45.6182C32.3615 45.6012 31.1461 45.8398 30.0156 46.3192C28.8852 46.7986 27.864 47.5086 27.0153 48.4051C26.0947 49.3654 25.3772 50.5063 24.9066 51.758C24.4361 53.0096 24.2226 54.3456 24.2791 55.6839C24.2027 56.9794 24.3846 58.2772 24.8141 59.4997C25.2435 60.7222 25.9116 61.8443 26.7783 62.7988C27.6786 63.6703 28.7451 64.3458 29.9122 64.7837C31.0794 65.2216 32.3225 65.4127 33.5651 65.3452C36.6245 65.3452 38.9227 64.715 40.4596 63.4545L38.7575 60.0009C38.1469 60.5677 37.4289 61.0024 36.6474 61.2786C35.8658 61.5548 35.037 61.6667 34.2114 61.6075C32.84 61.6732 31.4931 61.2216 30.4302 60.3397C29.9448 59.8951 29.554 59.3546 29.2817 58.7513C29.0094 58.1481 28.8614 57.4948 28.8467 56.8315H42.2802C42.4842 56.0228 42.6069 55.1952 42.6464 54.3615L42.5926 54.3178ZM33.662 49.2576C36.3983 49.2576 37.9172 50.6456 38.2189 53.4216H28.9867C29.5972 50.6456 31.152 49.2576 33.6513 49.2576" fill="#442580"></path><path d="M46.8474 38.8203L51.2319 37.7274V59.1484C51.2319 61.4946 51.9141 62.8935 53.2787 63.3452C52.9551 63.9796 52.4547 64.5034 51.8398 64.8512C51.2249 65.1991 50.5227 65.3557 49.8207 65.3015C47.8385 65.3015 46.8474 63.9026 46.8474 61.1048V38.8203Z" fill="#00AEEF"></path><path d="M71.3663 47.4105L69.4919 50.6893C68.3583 49.6725 66.8771 49.1467 65.3659 49.2248C64.6281 49.1888 63.8918 49.3214 63.2113 49.6127C62.5307 49.904 61.9233 50.3466 61.4339 50.9079C60.4067 52.2279 59.893 53.8847 59.9904 55.5637C59.9904 59.571 61.8612 61.5747 65.6029 61.5747C67.1947 61.594 68.7345 61.0004 69.912 59.9135L71.5171 63.4108C70.4951 64.1049 69.3666 64.6219 68.1776 64.9409C67.0681 65.1691 65.9377 65.2754 64.8057 65.2578C63.5498 65.3265 62.2933 65.1341 61.1133 64.6925C59.9332 64.2508 58.8546 63.5692 57.9436 62.6895C57.0746 61.7338 56.4044 60.6103 55.9732 59.3859C55.5419 58.1616 55.3584 56.8616 55.4335 55.5637C55.3799 54.2264 55.5959 52.892 56.0683 51.6423C56.5406 50.3926 57.2594 49.2539 58.1806 48.2958C59.1863 47.3385 60.3734 46.5988 61.6698 46.1216C62.9661 45.6443 64.3446 45.4396 65.7214 45.5198C67.7574 45.4989 69.7427 46.1639 71.3663 47.4105Z" fill="#00AEEF"></path></svg> 