<svg xmlns="http://www.w3.org/2000/svg" xmlns:xlink="http://www.w3.org/1999/xlink" width="190.225" height="141.206" viewBox="0 0 190.225 141.206">
  <defs>
    <clipPath id="clip-path">
      <rect id="Rectángulo_4368" data-name="Rectángulo 4368" width="15.4" height="15.4" fill="#df383e"/>
    </clipPath>
  </defs>
  <g id="LOGO_IBAT_MAIN_WHITE" data-name="LOGO IBAT MAIN WHITE" transform="translate(-1167 -329.014)">
    <rect id="Rectángulo_4409" data-name="Rectángulo 4409" width="15.4" height="66.797" transform="translate(1167.072 352.113)" fill="#fff"/>
    <rect id="Rectángulo_4415" data-name="Rectángulo 4415" width="15.4" height="15.401" transform="translate(1167.072 329.014)" fill="#3d769b"/>
    <rect id="Rectángulo_4410" data-name="Rectángulo 4410" width="15.4" height="74.497" transform="translate(1190.173 344.414)" fill="#fff"/>
    <rect id="Rectángulo_4416" data-name="Rectángulo 4416" width="15.4" height="15.401" transform="translate(1190.173 329.014)" fill="#f49129"/>
    <rect id="Rectángulo_4411" data-name="Rectángulo 4411" width="15.4" height="89.676" transform="translate(1326.424 329.234)" fill="#fff"/>
    <rect id="Rectángulo_4414" data-name="Rectángulo 4414" width="15.4" height="15.401" transform="translate(1341.825 352.113)" fill="#df383e"/>
    <rect id="Rectángulo_4412" data-name="Rectángulo 4412" width="15.4" height="45.761" transform="translate(1303.324 358.486)" fill="#fff"/>
    <path id="Trazado_12829" data-name="Trazado 12829" d="M45.179,79.461A30.212,30.212,0,1,1,75.394,49.248,30.246,30.246,0,0,1,45.179,79.461m0-45.024A14.812,14.812,0,1,0,59.992,49.248,14.829,14.829,0,0,0,45.179,34.437" transform="translate(1175.205 339.449)" fill="#fff"/>
    <path id="Trazado_12830" data-name="Trazado 12830" d="M89.185,79.461A30.212,30.212,0,1,1,119.4,49.248,30.247,30.247,0,0,1,89.185,79.461m0-45.024A14.812,14.812,0,1,0,104,49.248,14.829,14.829,0,0,0,89.185,34.437" transform="translate(1199.327 339.449)" fill="#fff"/>
    <rect id="Rectángulo_4413" data-name="Rectángulo 4413" width="15.4" height="15.4" transform="translate(1303.324 403.102)" fill="#6ab42d"/>
    <path id="Trazado_12802" data-name="Trazado 12802" d="M4.462,80.393H0V65.933H4.66a7.087,7.087,0,0,1,3.6.865,5.719,5.719,0,0,1,2.294,2.477,8.642,8.642,0,0,1,.8,3.858,8.717,8.717,0,0,1-.8,3.888A5.707,5.707,0,0,1,8.2,79.52a7.47,7.47,0,0,1-3.742.873M1.751,78.839h2.6a5.805,5.805,0,0,0,2.973-.69,4.276,4.276,0,0,0,1.756-1.971,7.333,7.333,0,0,0,.579-3.044,7.3,7.3,0,0,0-.571-3.017,4.245,4.245,0,0,0-1.708-1.949,5.432,5.432,0,0,0-2.832-.68h-2.8Z" transform="translate(1167 365.158)" fill="#f4f4f4"/>
    <path id="Trazado_12803" data-name="Trazado 12803" d="M18.718,65.933h1.751v9.574a5.055,5.055,0,0,1-.7,2.644,4.884,4.884,0,0,1-1.96,1.828,6.27,6.27,0,0,1-2.965.667,6.27,6.27,0,0,1-2.965-.667,4.9,4.9,0,0,1-1.96-1.828,5.055,5.055,0,0,1-.7-2.644V65.933H10.98v9.433a3.758,3.758,0,0,0,.466,1.881,3.316,3.316,0,0,0,1.331,1.293,4.283,4.283,0,0,0,2.071.468,4.31,4.31,0,0,0,2.076-.468,3.283,3.283,0,0,0,1.33-1.293,3.773,3.773,0,0,0,.463-1.881Z" transform="translate(1172.06 365.158)" fill="#f4f4f4"/>
    <path id="Trazado_12804" data-name="Trazado 12804" d="M18.751,80.393V65.933h5.056a5.292,5.292,0,0,1,2.491.52,3.451,3.451,0,0,1,1.461,1.389,3.94,3.94,0,0,1,.48,1.934,3.205,3.205,0,0,1-.328,1.539,2.642,2.642,0,0,1-.862.96A4.026,4.026,0,0,1,25.9,72.8v.141a2.829,2.829,0,0,1,1.335.466,3.384,3.384,0,0,1,1.122,1.214A3.838,3.838,0,0,1,28.8,76.55a3.882,3.882,0,0,1-.494,1.957,3.427,3.427,0,0,1-1.561,1.378,6.48,6.48,0,0,1-2.774.508Zm1.751-8.1H23.75a3.221,3.221,0,0,0,1.429-.311A2.494,2.494,0,0,0,26.2,71.1a2.321,2.321,0,0,0,.378-1.325,2.208,2.208,0,0,0-.664-1.621,2.867,2.867,0,0,0-2.1-.667H20.5Zm0,6.55h3.474a3.567,3.567,0,0,0,2.438-.667,2.118,2.118,0,0,0,.725-1.621,2.59,2.59,0,0,0-.375-1.356,2.74,2.74,0,0,0-1.067-1,3.371,3.371,0,0,0-1.636-.376H20.5Z" transform="translate(1177.279 365.158)" fill="#f4f4f4"/>
    <path id="Trazado_12805" data-name="Trazado 12805" d="M27.106,80.393V65.933h1.751V78.839h6.722v1.554Z" transform="translate(1181.859 365.158)" fill="#f4f4f4"/>
    <rect id="Rectángulo_4401" data-name="Rectángulo 4401" width="1.751" height="14.46" transform="translate(1220.147 431.09)" fill="#f4f4f4"/>
    <path id="Trazado_12806" data-name="Trazado 12806" d="M49.188,65.933v14.46h-1.7L39.614,69.04h-.141V80.393H37.722V65.933h1.694l7.908,11.382h.141V65.933Z" transform="translate(1187.679 365.158)" fill="#f4f4f4"/>
    <rect id="Rectángulo_4402" data-name="Rectángulo 4402" width="1.878" height="10.367" transform="translate(1253.129 431.844)" fill="#f4f4f4"/>
    <path id="Trazado_12807" data-name="Trazado 12807" d="M66.682,66.418V76.785h-1.67l-4.885-7.061H60.04v7.061H58.162V66.418h1.681l4.878,7.066h.093V66.418Z" transform="translate(1198.884 365.424)" fill="#f4f4f4"/>
    <path id="Trazado_12808" data-name="Trazado 12808" d="M70.75,69.319a1.387,1.387,0,0,0-.6-1.033,2.3,2.3,0,0,0-1.359-.368,2.589,2.589,0,0,0-1.006.176,1.485,1.485,0,0,0-.642.481,1.165,1.165,0,0,0-.229.694,1.035,1.035,0,0,0,.15.56,1.27,1.27,0,0,0,.409.4,2.717,2.717,0,0,0,.571.277c.209.073.42.135.632.187l.972.243a6.716,6.716,0,0,1,1.132.368,4.105,4.105,0,0,1,.977.587,2.634,2.634,0,0,1,.686.856,2.577,2.577,0,0,1,.254,1.175,2.809,2.809,0,0,1-.466,1.6,3.069,3.069,0,0,1-1.344,1.078,5.275,5.275,0,0,1-2.124.387,5.393,5.393,0,0,1-2.1-.375,3.115,3.115,0,0,1-1.386-1.093,3.222,3.222,0,0,1-.539-1.753h1.847a1.558,1.558,0,0,0,.334.9,1.767,1.767,0,0,0,.766.537,3.018,3.018,0,0,0,1.061.176,2.88,2.88,0,0,0,1.076-.184,1.7,1.7,0,0,0,.726-.516,1.252,1.252,0,0,0,.269-.777,1.01,1.01,0,0,0-.238-.672,1.792,1.792,0,0,0-.65-.444,6.488,6.488,0,0,0-.975-.322l-1.18-.3a4.722,4.722,0,0,1-2.022-1,2.29,2.29,0,0,1-.742-1.784,2.663,2.663,0,0,1,.5-1.605,3.3,3.3,0,0,1,1.359-1.071,4.77,4.77,0,0,1,1.949-.382,4.619,4.619,0,0,1,1.937.382,3.2,3.2,0,0,1,1.308,1.059,2.716,2.716,0,0,1,.491,1.551Z" transform="translate(1202.49 365.373)" fill="#f4f4f4"/>
    <path id="Trazado_12809" data-name="Trazado 12809" d="M70.665,67.993V66.418h8.272v1.575H75.731v8.794H73.868V67.993Z" transform="translate(1205.738 365.424)" fill="#f4f4f4"/>
    <rect id="Rectángulo_4403" data-name="Rectángulo 4403" width="1.878" height="10.367" transform="translate(1286.264 431.844)" fill="#f4f4f4"/>
    <path id="Trazado_12810" data-name="Trazado 12810" d="M79.27,67.993V66.418h8.272v1.575H84.336v8.794H82.474V67.993Z" transform="translate(1210.455 365.424)" fill="#f4f4f4"/>
    <path id="Trazado_12811" data-name="Trazado 12811" d="M92.175,66.418h1.878v6.773a3.646,3.646,0,0,1-.525,1.96,3.574,3.574,0,0,1-1.469,1.318,5.417,5.417,0,0,1-4.431,0,3.56,3.56,0,0,1-1.468-1.318,3.672,3.672,0,0,1-.522-1.96V66.418h1.878v6.615a2.292,2.292,0,0,0,.288,1.155,2.024,2.024,0,0,0,.807.791,2.8,2.8,0,0,0,2.472,0,2,2,0,0,0,.807-.791,2.322,2.322,0,0,0,.285-1.155Z" transform="translate(1213.946 365.424)" fill="#f4f4f4"/>
    <path id="Trazado_12812" data-name="Trazado 12812" d="M92.1,67.993V66.418h8.272v1.575H97.166v8.794H95.3V67.993Z" transform="translate(1217.488 365.424)" fill="#f4f4f4"/>
    <path id="Trazado_12813" data-name="Trazado 12813" d="M98.47,76.785V66.419h6.742v1.573h-4.864v2.816h4.516v1.573h-4.516v2.83h4.906v1.575Z" transform="translate(1220.98 365.424)" fill="#f4f4f4"/>
    <path id="Trazado_12814" data-name="Trazado 12814" d="M115.706,71.653a6.107,6.107,0,0,1-.625,2.867,4.457,4.457,0,0,1-1.7,1.824,5,5,0,0,1-4.875,0,4.465,4.465,0,0,1-1.7-1.827,6.862,6.862,0,0,1,0-5.731,4.437,4.437,0,0,1,1.7-1.824,5.009,5.009,0,0,1,4.875,0,4.457,4.457,0,0,1,1.7,1.824,6.113,6.113,0,0,1,.625,2.869m-1.889,0a4.858,4.858,0,0,0-.365-1.993,2.773,2.773,0,0,0-1.017-1.229,2.864,2.864,0,0,0-2.985,0,2.77,2.77,0,0,0-1.016,1.229,5.589,5.589,0,0,0,0,3.983,2.783,2.783,0,0,0,1.016,1.231,2.873,2.873,0,0,0,2.985,0,2.787,2.787,0,0,0,1.017-1.231,4.845,4.845,0,0,0,.365-1.991" transform="translate(1225.206 365.375)" fill="#f4f4f4"/>
    <path id="Trazado_12815" data-name="Trazado 12815" d="M113.483,76.785V66.419h6.642v1.573h-4.764v2.816h4.309v1.573h-4.309v4.4Z" transform="translate(1229.211 365.424)" fill="#f4f4f4"/>
    <path id="Trazado_12816" data-name="Trazado 12816" d="M55.632,85.786V75.418H59.6a4.4,4.4,0,0,1,1.87.353,2.512,2.512,0,0,1,1.118.958,2.592,2.592,0,0,1,.372,1.378,2.233,2.233,0,0,1-.242,1.081,2.051,2.051,0,0,1-.653.726,2.749,2.749,0,0,1-.915.4v.1a2.269,2.269,0,0,1,1.059.336,2.384,2.384,0,0,1,.833.862,2.638,2.638,0,0,1,.324,1.347,2.724,2.724,0,0,1-.39,1.446A2.649,2.649,0,0,1,61.8,85.416a4.607,4.607,0,0,1-1.974.37Zm1.878-5.959h1.858a2.058,2.058,0,0,0,.876-.18,1.458,1.458,0,0,0,.615-.511,1.367,1.367,0,0,0,.226-.786,1.293,1.293,0,0,0-.423-.994,1.8,1.8,0,0,0-1.252-.389h-1.9Zm0,4.389h2.02a2.238,2.238,0,0,0,1.475-.392,1.277,1.277,0,0,0,.454-1.009,1.556,1.556,0,0,0-.876-1.42,2.168,2.168,0,0,0-1-.217H57.51Z" transform="translate(1197.497 370.357)" fill="#f4f4f4"/>
    <path id="Trazado_12817" data-name="Trazado 12817" d="M68.219,75.418H70.1v6.773a3.646,3.646,0,0,1-.525,1.96A3.574,3.574,0,0,1,68.1,85.469a5.417,5.417,0,0,1-4.431,0A3.56,3.56,0,0,1,62.2,84.151a3.672,3.672,0,0,1-.522-1.96V75.418h1.878v6.615a2.292,2.292,0,0,0,.288,1.155,2.024,2.024,0,0,0,.807.791,2.8,2.8,0,0,0,2.472,0,2,2,0,0,0,.807-.791,2.322,2.322,0,0,0,.285-1.155Z" transform="translate(1200.814 370.357)" fill="#f4f4f4"/>
    <path id="Trazado_12818" data-name="Trazado 12818" d="M74.206,78.319a1.387,1.387,0,0,0-.6-1.033,2.3,2.3,0,0,0-1.359-.368,2.589,2.589,0,0,0-1.006.177,1.485,1.485,0,0,0-.643.481,1.165,1.165,0,0,0-.229.694,1.035,1.035,0,0,0,.15.56,1.27,1.27,0,0,0,.409.4,2.717,2.717,0,0,0,.571.277c.209.073.42.135.632.187l.972.243a6.716,6.716,0,0,1,1.132.368,4.105,4.105,0,0,1,.977.587,2.633,2.633,0,0,1,.686.856,2.577,2.577,0,0,1,.254,1.175,2.808,2.808,0,0,1-.466,1.6,3.068,3.068,0,0,1-1.344,1.078,5.275,5.275,0,0,1-2.124.387,5.393,5.393,0,0,1-2.1-.375,3.115,3.115,0,0,1-1.386-1.093,3.222,3.222,0,0,1-.539-1.753h1.847a1.558,1.558,0,0,0,.334.9,1.766,1.766,0,0,0,.766.537,3.018,3.018,0,0,0,1.061.176,2.88,2.88,0,0,0,1.076-.184,1.7,1.7,0,0,0,.726-.516,1.252,1.252,0,0,0,.269-.777,1.01,1.01,0,0,0-.238-.672,1.792,1.792,0,0,0-.65-.444,6.49,6.49,0,0,0-.975-.322l-1.18-.3a4.722,4.722,0,0,1-2.022-1,2.29,2.29,0,0,1-.742-1.784,2.663,2.663,0,0,1,.5-1.605,3.3,3.3,0,0,1,1.359-1.071,4.77,4.77,0,0,1,1.949-.382,4.619,4.619,0,0,1,1.937.382,3.2,3.2,0,0,1,1.308,1.059,2.716,2.716,0,0,1,.491,1.551Z" transform="translate(1204.385 370.307)" fill="#f4f4f4"/>
    <rect id="Rectángulo_4404" data-name="Rectángulo 4404" width="1.878" height="10.367" transform="translate(1282.209 445.777)" fill="#f4f4f4"/>
    <path id="Trazado_12819" data-name="Trazado 12819" d="M85.466,75.418V85.785H83.8l-4.885-7.061h-.087v7.061H76.946V75.418h1.681l4.878,7.066H83.6V75.418Z" transform="translate(1209.182 370.357)" fill="#f4f4f4"/>
    <path id="Trazado_12820" data-name="Trazado 12820" d="M83.767,85.785V75.419h6.742v1.573H85.645v2.816h4.516v1.573H85.645v2.83h4.906v1.575Z" transform="translate(1212.92 370.357)" fill="#f4f4f4"/>
    <path id="Trazado_12821" data-name="Trazado 12821" d="M95.128,78.319a1.387,1.387,0,0,0-.6-1.033,2.3,2.3,0,0,0-1.359-.368,2.589,2.589,0,0,0-1.006.177,1.485,1.485,0,0,0-.643.481,1.165,1.165,0,0,0-.229.694,1.034,1.034,0,0,0,.15.56,1.27,1.27,0,0,0,.409.4,2.717,2.717,0,0,0,.571.277c.209.073.42.135.632.187l.972.243a6.717,6.717,0,0,1,1.132.368,4.105,4.105,0,0,1,.977.587,2.634,2.634,0,0,1,.686.856,2.577,2.577,0,0,1,.254,1.175,2.809,2.809,0,0,1-.466,1.6,3.068,3.068,0,0,1-1.344,1.078,5.275,5.275,0,0,1-2.124.387,5.393,5.393,0,0,1-2.1-.375,3.115,3.115,0,0,1-1.386-1.093,3.222,3.222,0,0,1-.539-1.753h1.847a1.558,1.558,0,0,0,.334.9,1.766,1.766,0,0,0,.766.537,3.018,3.018,0,0,0,1.061.176A2.88,2.88,0,0,0,94.2,84.2a1.7,1.7,0,0,0,.726-.516,1.252,1.252,0,0,0,.269-.777,1.01,1.01,0,0,0-.238-.672,1.792,1.792,0,0,0-.65-.444,6.49,6.49,0,0,0-.975-.322l-1.18-.3a4.722,4.722,0,0,1-2.022-1,2.29,2.29,0,0,1-.742-1.784,2.663,2.663,0,0,1,.5-1.605,3.3,3.3,0,0,1,1.359-1.071,4.77,4.77,0,0,1,1.949-.382,4.619,4.619,0,0,1,1.937.382,3.2,3.2,0,0,1,1.308,1.059,2.716,2.716,0,0,1,.491,1.551Z" transform="translate(1215.854 370.307)" fill="#f4f4f4"/>
    <path id="Trazado_12822" data-name="Trazado 12822" d="M101.1,78.319a1.387,1.387,0,0,0-.6-1.033,2.3,2.3,0,0,0-1.359-.368,2.589,2.589,0,0,0-1.006.177,1.485,1.485,0,0,0-.643.481,1.165,1.165,0,0,0-.229.694,1.034,1.034,0,0,0,.15.56,1.27,1.27,0,0,0,.409.4,2.716,2.716,0,0,0,.571.277c.209.073.42.135.632.187l.972.243a6.716,6.716,0,0,1,1.132.368,4.105,4.105,0,0,1,.977.587,2.633,2.633,0,0,1,.686.856,2.577,2.577,0,0,1,.254,1.175,2.808,2.808,0,0,1-.466,1.6,3.068,3.068,0,0,1-1.344,1.078,5.275,5.275,0,0,1-2.124.387,5.393,5.393,0,0,1-2.1-.375,3.115,3.115,0,0,1-1.386-1.093,3.222,3.222,0,0,1-.539-1.753h1.847a1.558,1.558,0,0,0,.334.9,1.766,1.766,0,0,0,.766.537,3.018,3.018,0,0,0,1.061.176,2.88,2.88,0,0,0,1.076-.184,1.7,1.7,0,0,0,.726-.516,1.252,1.252,0,0,0,.269-.777,1.01,1.01,0,0,0-.238-.672,1.792,1.792,0,0,0-.65-.444,6.491,6.491,0,0,0-.975-.322l-1.18-.3a4.722,4.722,0,0,1-2.022-1,2.29,2.29,0,0,1-.742-1.784,2.663,2.663,0,0,1,.5-1.605,3.3,3.3,0,0,1,1.359-1.071,4.77,4.77,0,0,1,1.949-.382,4.619,4.619,0,0,1,1.937.382,3.2,3.2,0,0,1,1.308,1.059,2.716,2.716,0,0,1,.491,1.551Z" transform="translate(1219.131 370.307)" fill="#f4f4f4"/>
    <path id="Trazado_12823" data-name="Trazado 12823" d="M105.169,85.786h-2l3.649-10.367h2.319l3.655,10.367h-2l-2.77-8.241h-.08Zm.065-4.064H110.7V83.23h-5.467Z" transform="translate(1223.554 370.357)" fill="#f4f4f4"/>
    <path id="Trazado_12824" data-name="Trazado 12824" d="M118.782,75.418V85.785h-1.67l-4.885-7.061h-.087v7.061h-1.878V75.418h1.681l4.878,7.066h.093V75.418Z" transform="translate(1227.445 370.357)" fill="#f4f4f4"/>
    <path id="Trazado_12825" data-name="Trazado 12825" d="M120.6,85.786h-3.514V75.419h3.586a5.363,5.363,0,0,1,2.654.619,4.186,4.186,0,0,1,1.709,1.779,6.744,6.744,0,0,1,0,5.558,4.164,4.164,0,0,1-1.726,1.787,5.5,5.5,0,0,1-2.7.624m-1.636-1.626h1.545a3.7,3.7,0,0,0,1.807-.4,2.511,2.511,0,0,0,1.088-1.187,5.548,5.548,0,0,0,0-3.96,2.508,2.508,0,0,0-1.076-1.18,3.612,3.612,0,0,0-1.765-.392h-1.6Z" transform="translate(1231.184 370.357)" fill="#f4f4f4"/>
    <path id="Trazado_12775" data-name="Trazado 12775" d="M55.338,85.993V84.418H63.61v1.575H60.4v8.794H58.541V85.993Z" transform="translate(1197.336 375.291)" fill="#f4f4f4"/>
    <path id="Trazado_12776" data-name="Trazado 12776" d="M61.707,94.785V84.419h6.742v1.573H63.585v2.816H68.1v1.573H63.585v2.83h4.906v1.575Z" transform="translate(1200.827 375.291)" fill="#f4f4f4"/>
    <path id="Trazado_12777" data-name="Trazado 12777" d="M76.267,87.967H74.373a2.345,2.345,0,0,0-.3-.828,2.3,2.3,0,0,0-.542-.616,2.329,2.329,0,0,0-.737-.381,2.982,2.982,0,0,0-.887-.13,2.694,2.694,0,0,0-1.5.424,2.8,2.8,0,0,0-1.023,1.235,5.524,5.524,0,0,0,0,3.983,2.77,2.77,0,0,0,1.022,1.225,2.718,2.718,0,0,0,1.491.412,2.954,2.954,0,0,0,.873-.124,2.349,2.349,0,0,0,.734-.367,2.214,2.214,0,0,0,.551-.6,2.247,2.247,0,0,0,.311-.81l1.893.011a4.113,4.113,0,0,1-1.376,2.528,4.192,4.192,0,0,1-1.325.769,4.907,4.907,0,0,1-1.686.276,4.7,4.7,0,0,1-2.44-.633,4.416,4.416,0,0,1-1.691-1.827,6.936,6.936,0,0,1,0-5.733,4.451,4.451,0,0,1,1.7-1.824,4.68,4.68,0,0,1,2.429-.635,5.135,5.135,0,0,1,1.609.245,4.115,4.115,0,0,1,1.328.712,3.858,3.858,0,0,1,.958,1.143,4.319,4.319,0,0,1,.492,1.542" transform="translate(1203.801 375.24)" fill="#f4f4f4"/>
    <path id="Trazado_12778" data-name="Trazado 12778" d="M74.147,94.785V84.419h1.878v4.389h4.8V84.419h1.883V94.785H80.829v-4.4h-4.8v4.4Z" transform="translate(1207.646 375.291)" fill="#f4f4f4"/>
    <path id="Trazado_12779" data-name="Trazado 12779" d="M89.517,84.418V94.785H87.846l-4.885-7.061h-.087v7.061H81V84.418h1.681l4.878,7.066h.093V84.418Z" transform="translate(1211.401 375.291)" fill="#f4f4f4"/>
    <path id="Trazado_12780" data-name="Trazado 12780" d="M97.175,89.653a6.107,6.107,0,0,1-.625,2.867,4.457,4.457,0,0,1-1.7,1.824,5,5,0,0,1-4.875,0,4.464,4.464,0,0,1-1.7-1.827,6.862,6.862,0,0,1,0-5.731,4.437,4.437,0,0,1,1.7-1.824,5.009,5.009,0,0,1,4.875,0,4.457,4.457,0,0,1,1.7,1.824,6.113,6.113,0,0,1,.625,2.869m-1.889,0a4.858,4.858,0,0,0-.365-1.993A2.773,2.773,0,0,0,93.9,86.431a2.864,2.864,0,0,0-2.985,0A2.771,2.771,0,0,0,89.9,87.66a5.589,5.589,0,0,0,0,3.983,2.784,2.784,0,0,0,1.016,1.231,2.873,2.873,0,0,0,2.985,0,2.786,2.786,0,0,0,1.017-1.231,4.845,4.845,0,0,0,.365-1.991" transform="translate(1215.047 375.242)" fill="#f4f4f4"/>
    <path id="Trazado_12781" data-name="Trazado 12781" d="M94.951,94.785V84.419h1.878v8.792h4.566v1.575Z" transform="translate(1219.052 375.291)" fill="#f4f4f4"/>
    <path id="Trazado_12782" data-name="Trazado 12782" d="M109.259,89.653a6.107,6.107,0,0,1-.625,2.867,4.457,4.457,0,0,1-1.7,1.824,5,5,0,0,1-4.875,0,4.464,4.464,0,0,1-1.7-1.827,6.862,6.862,0,0,1,0-5.731,4.437,4.437,0,0,1,1.7-1.824,5.009,5.009,0,0,1,4.875,0,4.457,4.457,0,0,1,1.7,1.824,6.113,6.113,0,0,1,.625,2.869m-1.889,0A4.858,4.858,0,0,0,107,87.66a2.773,2.773,0,0,0-1.017-1.229,2.864,2.864,0,0,0-2.985,0,2.77,2.77,0,0,0-1.016,1.229,5.589,5.589,0,0,0,0,3.983A2.783,2.783,0,0,0,103,92.875a2.873,2.873,0,0,0,2.985,0A2.786,2.786,0,0,0,107,91.644a4.846,4.846,0,0,0,.365-1.991" transform="translate(1221.672 375.242)" fill="#f4f4f4"/>
    <path id="Trazado_12783" data-name="Trazado 12783" d="M114.074,87.779a2.783,2.783,0,0,0-.345-.737,2.388,2.388,0,0,0-.528-.559,2.171,2.171,0,0,0-.7-.351,2.989,2.989,0,0,0-.861-.121,2.686,2.686,0,0,0-1.488.421,2.807,2.807,0,0,0-1.026,1.232,5.489,5.489,0,0,0,0,3.966,2.674,2.674,0,0,0,2.556,1.661,2.912,2.912,0,0,0,1.369-.3,2.164,2.164,0,0,0,.895-.862,2.645,2.645,0,0,0,.311-1.314l.427.067h-2.816V89.41h4.206v1.245a4.509,4.509,0,0,1-.565,2.3,3.869,3.869,0,0,1-1.561,1.5,5.218,5.218,0,0,1-4.792-.122,4.422,4.422,0,0,1-1.684-1.836,6.207,6.207,0,0,1-.6-2.833,6.589,6.589,0,0,1,.355-2.242,4.85,4.85,0,0,1,1-1.678,4.307,4.307,0,0,1,1.506-1.053,4.844,4.844,0,0,1,1.886-.362,4.986,4.986,0,0,1,1.6.251,4.291,4.291,0,0,1,1.327.712,3.947,3.947,0,0,1,.952,1.093,3.792,3.792,0,0,1,.489,1.4Z" transform="translate(1225.583 375.242)" fill="#f4f4f4"/>
    <path id="Trazado_12784" data-name="Trazado 12784" d="M113.278,84.418H115.4l2.537,4.587h.1l2.536-4.587h2.121l-3.77,6.5v3.867H117.05V90.918Z" transform="translate(1229.098 375.291)" fill="#f4f4f4"/>
    <line id="Línea_2883" data-name="Línea 2883" y2="39.127" transform="translate(1245.277 431.092)" fill="#8c8b8b"/>
    <line id="Línea_2884" data-name="Línea 2884" y2="39.127" transform="translate(1245.277 431.092)" fill="none" stroke="#fff" stroke-width="0.5"/>
    <g id="Grupo_15262" data-name="Grupo 15262" transform="translate(1326.424 352.115)" opacity="0.6">
      <g id="Grupo_15250" data-name="Grupo 15250">
        <g id="Grupo_15249" data-name="Grupo 15249" clip-path="url(#clip-path)">
          <rect id="Rectángulo_4367" data-name="Rectángulo 4367" width="15.4" height="15.4" transform="translate(0 -0.001)" fill="#df383e"/>
        </g>
      </g>
    </g>
  </g>
</svg>
